<?xml version="1.0" standalone="no"?>
 <!DOCTYPE svg PUBLIC "-//W3C//DTD SVG 1.1//EN" 
 "http://www.w3.org/Graphics/SVG/1.1/DTD/svg11.dtd"> 
<svg xmlns="http://www.w3.org/2000/svg" version="1.1" 
    width="4.69392cm" height="4.0513cm" viewBox="0 0 18480 15950 ">
<title>SVG Picture created as 5thpcbway-brd.svg date 2019/04/22 00:55:11 </title>
  <desc>Picture generated by PCBNEW </desc>
<g style="fill:#000000; fill-opacity:1;stroke:#000000; stroke-opacity:1;
stroke-linecap:round; stroke-linejoin:round; "
 transform="translate(0 0) scale(1 1)">
</g>
<g style="fill:#000000; fill-opacity:0.0; 
stroke:#000000; stroke-width:-0.000393701; stroke-opacity:1; 
stroke-linecap:round; stroke-linejoin:round;">
</g>
<g style="fill:#840084; fill-opacity:0.0; 
stroke:#840084; stroke-width:-0.000393701; stroke-opacity:1; 
stroke-linecap:round; stroke-linejoin:round;">
</g>
<g style="fill:#840084; fill-opacity:0.0; 
stroke:#840084; stroke-width:39.3701; stroke-opacity:1; 
stroke-linecap:round; stroke-linejoin:round;">
<path d="M9902.97 8602.52 A3877.43 3877.43 0.0 0 0 9901.57 13328.7 " />
<path d="M9908.08 8603.01 A849.318 849.318 0.0 0 0 9519.69 7289.37 " />
<path d="M7964 6722
L9519 7289
" />
<path d="M3566 7541
L4385 6722
" />
<path d="M3566 14391
L3566 7541
" />
<path d="M3566 14391
L4385 15210
" />
<path d="M7964 15210
L9519 14643
" />
<path d="M9522.9 14637.9 A844.954 844.954 0.0 0 0 9901.57 13328.7 " />
<path d="M4385 6722
L5354 6722
" />
<path d="M7716 6722
L7964 6722
" />
<path d="M4385 15210
L5354 15210
" />
<path d="M7716 15210
L7964 15210
" />
</g>
<g style="fill:#840084; fill-opacity:0.0; 
stroke:#840084; stroke-width:47.2441; stroke-opacity:1; 
stroke-linecap:round; stroke-linejoin:round;">
<path d="M2842 5887
L2842 5809
" />
<path d="M1212 6990
L1129 6911
" />
<path d="M1212 6478
L1129 6557
" />
<path d="M1720 6990
L1212 6990
" />
<path d="M1129 6911
L1129 6557
" />
<path d="M1212 6478
L1720 6478
" />
<path d="M1720 7561
L1720 5316
" />
<path d="M2842 7068
L2842 6399
" />
<path d="M2429 7797
L2118 7797
" />
<path d="M2118 5080
L2429 5080
" />
<path d="M8597 4348
L8803 4348
" />
<path d="M8597 4907
L8803 4907
" />
<path d="M4700 4907
L4906 4907
" />
<path d="M4700 4348
L4906 4348
" />
</g>
<g style="fill:#840084; fill-opacity:0.0; 
stroke:#840084; stroke-width:59.0551; stroke-opacity:1; 
stroke-linecap:round; stroke-linejoin:round;">
<path d="M1979 10657
L1998 10713
L2017 10732
L2054 10750
L2110 10750
L2148 10732
L2167 10713
L2185 10675
L2185 10525
L1792 10525
L1792 10657
L1811 10694
L1829 10713
L1867 10732
L1904 10732
L1942 10713
L1961 10694
L1979 10657
L1979 10525
" />
<path d="M1792 10863
L1792 11088
" />
<path d="M2185 10975
L1792 10975
" />
<path d="M2185 11425
L2185 11200
" />
<path d="M2185 11313
L1792 11313
L1848 11275
L1886 11238
L1904 11200
" />
<path d="M3820 5914
L3839 5970
L3839 6064
L3820 6101
L3802 6120
L3764 6139
L3727 6139
L3689 6120
L3670 6101
L3652 6064
L3633 5989
L3614 5951
L3595 5932
L3558 5914
L3520 5914
L3483 5932
L3464 5951
L3445 5989
L3445 6082
L3464 6139
" />
<path d="M3445 6270
L3839 6363
L3558 6438
L3839 6513
L3445 6607
" />
<path d="M3839 6963
L3839 6738
" />
<path d="M3839 6851
L3445 6851
L3502 6813
L3539 6776
L3558 6738
" />
<path d="M8766 5455
L8897 5268
" />
<path d="M8991 5455
L8991 5061
L8841 5061
L8803 5080
L8785 5099
L8766 5136
L8766 5193
L8785 5230
L8803 5249
L8841 5268
L8991 5268
" />
<path d="M8616 5099
L8597 5080
L8560 5061
L8466 5061
L8428 5080
L8410 5099
L8391 5136
L8391 5174
L8410 5230
L8635 5455
L8391 5455
" />
<path d="M4868 5455
L5000 5268
" />
<path d="M5093 5455
L5093 5061
L4943 5061
L4906 5080
L4887 5099
L4868 5136
L4868 5193
L4887 5230
L4906 5249
L4943 5268
L5093 5268
" />
<path d="M4493 5455
L4718 5455
" />
<path d="M4606 5455
L4606 5061
L4643 5118
L4681 5155
L4718 5174
" />
</g>
<g style="fill:#000000; fill-opacity:0.0; 
stroke:#000000; stroke-width:59.0551; stroke-opacity:1; 
stroke-linecap:round; stroke-linejoin:round;">
</g>
<g style="fill:#008400; fill-opacity:0.0; 
stroke:#008400; stroke-width:59.0551; stroke-opacity:1; 
stroke-linecap:round; stroke-linejoin:round;">
</g>
<g style="fill:#008400; fill-opacity:0.0; 
stroke:#008400; stroke-width:0; stroke-opacity:1; 
stroke-linecap:round; stroke-linejoin:round;">
</g>
<g style="fill:#008400; fill-opacity:1.0; 
stroke:#008400; stroke-width:0; stroke-opacity:1; 
stroke-linecap:round; stroke-linejoin:round;">
<polyline style="fill-rule:evenodd;"
points="5755,10187
7314,10187
7314,11746
5755,11746
5755,10187
" /> 
<polyline style="fill-rule:evenodd;"
points="5535,15041
7535,15041
7535,15541
5535,15541
5535,15041
" /> 
<polyline style="fill-rule:evenodd;"
points="5535,6391
7535,6391
7535,6891
5535,6891
5535,6391
" /> 
<polyline style="fill-rule:evenodd;"
points="3259,7462
2669,7462
2669,7187
3259,7187
3259,7462
" /> 
<polyline style="fill-rule:evenodd;"
points="3259,6281
2669,6281
2669,6005
3259,6005
3259,6281
" /> 
<polyline style="fill-rule:evenodd;"
points="3259,5690
2669,5690
2669,5415
3259,5415
3259,5690
" /> 
<polyline style="fill-rule:evenodd;"
points="1996,8072
1681,8072
1681,7679
1996,7679
1996,8072
" /> 
<polyline style="fill-rule:evenodd;"
points="1996,5198
1681,5198
1681,4805
1996,4805
1996,5198
" /> 
<polyline style="fill-rule:evenodd;"
points="2866,5198
2551,5198
2551,4805
2866,4805
2866,5198
" /> 
<polyline style="fill-rule:evenodd;"
points="2866,8072
2551,8072
2551,7679
2866,7679
2866,8072
" /> 
<polyline style="fill-rule:evenodd;"
points="9241,4352
9251,4354
9260,4356
9269,4359
9278,4363
9286,4368
9294,4374
9301,4381
9308,4388
9314,4396
9319,4404
9323,4413
9326,4422
9328,4431
9330,4441
9330,4450
9330,4805
9330,4814
9328,4824
9326,4833
9323,4842
9319,4851
9314,4859
9308,4867
9301,4874
9294,4881
9286,4886
9278,4891
9269,4896
9260,4899
9251,4901
9241,4903
9232,4903
8976,4903
8966,4903
8957,4901
8947,4899
8938,4896
8929,4891
8921,4886
8913,4881
8906,4874
8900,4867
8894,4859
8889,4851
8885,4842
8882,4833
8879,4824
8878,4814
8877,4805
8877,4450
8878,4441
8879,4431
8882,4422
8885,4413
8889,4404
8894,4396
8900,4388
8906,4381
8913,4374
8921,4368
8929,4363
8938,4359
8947,4356
8957,4354
8966,4352
8976,4352
9232,4352
9241,4352
" /> 
<polyline style="fill-rule:evenodd;"
points="8434,4352
8444,4354
8453,4356
8462,4359
8471,4363
8479,4368
8487,4374
8494,4381
8501,4388
8507,4396
8512,4404
8516,4413
8519,4422
8521,4431
8523,4441
8523,4450
8523,4805
8523,4814
8521,4824
8519,4833
8516,4842
8512,4851
8507,4859
8501,4867
8494,4874
8487,4881
8479,4886
8471,4891
8462,4896
8453,4899
8444,4901
8434,4903
8425,4903
8169,4903
8159,4903
8150,4901
8140,4899
8131,4896
8122,4891
8114,4886
8106,4881
8099,4874
8093,4867
8087,4859
8082,4851
8078,4842
8075,4833
8072,4824
8071,4814
8070,4805
8070,4450
8071,4441
8072,4431
8075,4422
8078,4413
8082,4404
8087,4396
8093,4388
8099,4381
8106,4374
8114,4368
8122,4363
8131,4359
8140,4356
8150,4354
8159,4352
8169,4352
8425,4352
8434,4352
" /> 
<polyline style="fill-rule:evenodd;"
points="4537,4352
4546,4354
4556,4356
4565,4359
4573,4363
4582,4368
4589,4374
4597,4381
4603,4388
4609,4396
4614,4404
4618,4413
4621,4422
4624,4431
4625,4441
4625,4450
4625,4805
4625,4814
4624,4824
4621,4833
4618,4842
4614,4851
4609,4859
4603,4867
4597,4874
4589,4881
4582,4886
4573,4891
4565,4896
4556,4899
4546,4901
4537,4903
4527,4903
4271,4903
4262,4903
4252,4901
4243,4899
4233,4896
4225,4891
4216,4886
4209,4881
4202,4874
4195,4867
4189,4859
4184,4851
4180,4842
4177,4833
4175,4824
4173,4814
4173,4805
4173,4450
4173,4441
4175,4431
4177,4422
4180,4413
4184,4404
4189,4396
4195,4388
4202,4381
4209,4374
4216,4368
4225,4363
4233,4359
4243,4356
4252,4354
4262,4352
4271,4352
4527,4352
4537,4352
" /> 
<polyline style="fill-rule:evenodd;"
points="5344,4352
5353,4354
5363,4356
5372,4359
5381,4363
5389,4368
5397,4374
5404,4381
5410,4388
5416,4396
5421,4404
5425,4413
5428,4422
5431,4431
5432,4441
5433,4450
5433,4805
5432,4814
5431,4824
5428,4833
5425,4842
5421,4851
5416,4859
5410,4867
5404,4874
5397,4881
5389,4886
5381,4891
5372,4896
5363,4899
5353,4901
5344,4903
5334,4903
5078,4903
5069,4903
5059,4901
5050,4899
5041,4896
5032,4891
5024,4886
5016,4881
5009,4874
5002,4867
4996,4859
4991,4851
4987,4842
4984,4833
4982,4824
4980,4814
4980,4805
4980,4450
4980,4441
4982,4431
4984,4422
4987,4413
4991,4404
4996,4396
5002,4388
5009,4381
5016,4374
5024,4368
5032,4363
5041,4359
5050,4356
5059,4354
5069,4352
5078,4352
5334,4352
5344,4352
" /> 
</g>
<g style="fill:#000000; fill-opacity:1.0; 
stroke:#000000; stroke-width:0; stroke-opacity:1; 
stroke-linecap:round; stroke-linejoin:round;">
</g>
<g style="fill:#848400; fill-opacity:1.0; 
stroke:#848400; stroke-width:0; stroke-opacity:1; 
stroke-linecap:round; stroke-linejoin:round;">
<polyline style="fill-rule:evenodd;"
points="7555,15561
5515,15561
5515,15021
7555,15021
7555,15561
" /> 
<polyline style="fill-rule:evenodd;"
points="7335,11766
5735,11766
5735,10166
7335,10166
7335,11766
" /> 
<polyline style="fill-rule:evenodd;"
points="2886,8092
2531,8092
2531,7659
2886,7659
2886,8092
" /> 
<polyline style="fill-rule:evenodd;"
points="2016,8092
1661,8092
1661,7659
2016,7659
2016,8092
" /> 
<polyline style="fill-rule:evenodd;"
points="3279,7482
2649,7482
2649,7166
3279,7166
3279,7482
" /> 
<polyline style="fill-rule:evenodd;"
points="2329,6839
2365,6854
2397,6876
2424,6903
2446,6936
2461,6971
2468,7010
2468,7048
2461,7087
2446,7122
2424,7155
2397,7182
2365,7204
2329,7219
2291,7226
2252,7226
2214,7219
2178,7204
2145,7182
2118,7155
2096,7122
2081,7087
2074,7048
2074,7010
2081,6971
2096,6936
2118,6903
2145,6876
2178,6854
2214,6839
2252,6832
2291,6832
2329,6839
" /> 
<polyline style="fill-rule:evenodd;"
points="7555,6911
5515,6911
5515,6371
7555,6371
7555,6911
" /> 
<polyline style="fill-rule:evenodd;"
points="3279,6301
2649,6301
2649,5985
3279,5985
3279,6301
" /> 
<polyline style="fill-rule:evenodd;"
points="2329,5658
2365,5673
2397,5695
2424,5722
2446,5754
2461,5790
2468,5828
2468,5867
2461,5905
2446,5941
2424,5974
2397,6001
2365,6023
2329,6038
2291,6045
2252,6045
2214,6038
2178,6023
2145,6001
2118,5974
2096,5941
2081,5905
2074,5867
2074,5828
2081,5790
2096,5754
2118,5722
2145,5695
2178,5673
2214,5658
2252,5651
2291,5651
2329,5658
" /> 
<polyline style="fill-rule:evenodd;"
points="3279,5711
2649,5711
2649,5395
3279,5395
3279,5711
" /> 
<polyline style="fill-rule:evenodd;"
points="2016,5218
1661,5218
1661,4785
2016,4785
2016,5218
" /> 
<polyline style="fill-rule:evenodd;"
points="2886,5218
2531,5218
2531,4785
2886,4785
2886,5218
" /> 
<polyline style="fill-rule:evenodd;"
points="5389,4334
5404,4338
5417,4345
5429,4355
5439,4367
5446,4381
5451,4396
5453,4414
5453,4841
5451,4859
5446,4874
5439,4888
5429,4900
5417,4910
5404,4917
5389,4921
5371,4923
5041,4923
5024,4921
5009,4917
4995,4910
4983,4900
4973,4888
4966,4874
4961,4859
4960,4841
4960,4414
4961,4396
4966,4381
4973,4367
4983,4355
4995,4345
5009,4338
5024,4334
5041,4332
5371,4332
5389,4334
" /> 
<polyline style="fill-rule:evenodd;"
points="8479,4334
8494,4338
8508,4345
8520,4355
8530,4367
8537,4381
8541,4396
8543,4414
8543,4841
8541,4859
8537,4874
8530,4888
8520,4900
8508,4910
8494,4917
8479,4921
8461,4923
8132,4923
8114,4921
8099,4917
8086,4910
8074,4900
8064,4888
8057,4874
8052,4859
8050,4841
8050,4414
8052,4396
8057,4381
8064,4367
8074,4355
8086,4345
8099,4338
8114,4334
8132,4332
8461,4332
8479,4334
" /> 
<polyline style="fill-rule:evenodd;"
points="4582,4334
4596,4338
4610,4345
4622,4355
4632,4367
4639,4381
4644,4396
4646,4414
4646,4841
4644,4859
4639,4874
4632,4888
4622,4900
4610,4910
4596,4917
4582,4921
4564,4923
4234,4923
4217,4921
4202,4917
4188,4910
4176,4900
4166,4888
4159,4874
4154,4859
4153,4841
4153,4414
4154,4396
4159,4381
4166,4367
4176,4355
4188,4345
4202,4338
4217,4334
4234,4332
4564,4332
4582,4334
" /> 
<polyline style="fill-rule:evenodd;"
points="9286,4334
9301,4338
9315,4345
9327,4355
9337,4367
9344,4381
9349,4396
9350,4414
9350,4841
9349,4859
9344,4874
9337,4888
9327,4900
9315,4910
9301,4917
9286,4921
9269,4923
8939,4923
8921,4921
8906,4917
8893,4910
8881,4900
8871,4888
8864,4874
8859,4859
8857,4841
8857,4414
8859,4396
8864,4381
8871,4367
8881,4355
8893,4345
8906,4338
8921,4334
8939,4332
9269,4332
9286,4334
" /> 
</g>
<g style="fill:#000000; fill-opacity:1.0; 
stroke:#000000; stroke-width:0; stroke-opacity:1; 
stroke-linecap:round; stroke-linejoin:round;">
</g>
<g style="fill:#008400; fill-opacity:1.0; 
stroke:#008400; stroke-width:0; stroke-opacity:1; 
stroke-linecap:round; stroke-linejoin:round;">
<polyline style="fill-rule:evenodd;"
points="5755,10187
7314,10187
7314,11746
5755,11746
5755,10187
" /> 
<polyline style="fill-rule:evenodd;"
points="5535,15041
7535,15041
7535,15541
5535,15541
5535,15041
" /> 
<polyline style="fill-rule:evenodd;"
points="5535,6391
7535,6391
7535,6891
5535,6891
5535,6391
" /> 
<polyline style="fill-rule:evenodd;"
points="3259,7462
2669,7462
2669,7187
3259,7187
3259,7462
" /> 
<polyline style="fill-rule:evenodd;"
points="3259,6281
2669,6281
2669,6005
3259,6005
3259,6281
" /> 
<polyline style="fill-rule:evenodd;"
points="3259,5690
2669,5690
2669,5415
3259,5415
3259,5690
" /> 
<polyline style="fill-rule:evenodd;"
points="1996,8072
1681,8072
1681,7679
1996,7679
1996,8072
" /> 
<polyline style="fill-rule:evenodd;"
points="1996,5198
1681,5198
1681,4805
1996,4805
1996,5198
" /> 
<polyline style="fill-rule:evenodd;"
points="2866,5198
2551,5198
2551,4805
2866,4805
2866,5198
" /> 
<polyline style="fill-rule:evenodd;"
points="2866,8072
2551,8072
2551,7679
2866,7679
2866,8072
" /> 
<polyline style="fill-rule:evenodd;"
points="9241,4352
9251,4354
9260,4356
9269,4359
9278,4363
9286,4368
9294,4374
9301,4381
9308,4388
9314,4396
9319,4404
9323,4413
9326,4422
9328,4431
9330,4441
9330,4450
9330,4805
9330,4814
9328,4824
9326,4833
9323,4842
9319,4851
9314,4859
9308,4867
9301,4874
9294,4881
9286,4886
9278,4891
9269,4896
9260,4899
9251,4901
9241,4903
9232,4903
8976,4903
8966,4903
8957,4901
8947,4899
8938,4896
8929,4891
8921,4886
8913,4881
8906,4874
8900,4867
8894,4859
8889,4851
8885,4842
8882,4833
8879,4824
8878,4814
8877,4805
8877,4450
8878,4441
8879,4431
8882,4422
8885,4413
8889,4404
8894,4396
8900,4388
8906,4381
8913,4374
8921,4368
8929,4363
8938,4359
8947,4356
8957,4354
8966,4352
8976,4352
9232,4352
9241,4352
" /> 
<polyline style="fill-rule:evenodd;"
points="8434,4352
8444,4354
8453,4356
8462,4359
8471,4363
8479,4368
8487,4374
8494,4381
8501,4388
8507,4396
8512,4404
8516,4413
8519,4422
8521,4431
8523,4441
8523,4450
8523,4805
8523,4814
8521,4824
8519,4833
8516,4842
8512,4851
8507,4859
8501,4867
8494,4874
8487,4881
8479,4886
8471,4891
8462,4896
8453,4899
8444,4901
8434,4903
8425,4903
8169,4903
8159,4903
8150,4901
8140,4899
8131,4896
8122,4891
8114,4886
8106,4881
8099,4874
8093,4867
8087,4859
8082,4851
8078,4842
8075,4833
8072,4824
8071,4814
8070,4805
8070,4450
8071,4441
8072,4431
8075,4422
8078,4413
8082,4404
8087,4396
8093,4388
8099,4381
8106,4374
8114,4368
8122,4363
8131,4359
8140,4356
8150,4354
8159,4352
8169,4352
8425,4352
8434,4352
" /> 
<polyline style="fill-rule:evenodd;"
points="4537,4352
4546,4354
4556,4356
4565,4359
4573,4363
4582,4368
4589,4374
4597,4381
4603,4388
4609,4396
4614,4404
4618,4413
4621,4422
4624,4431
4625,4441
4625,4450
4625,4805
4625,4814
4624,4824
4621,4833
4618,4842
4614,4851
4609,4859
4603,4867
4597,4874
4589,4881
4582,4886
4573,4891
4565,4896
4556,4899
4546,4901
4537,4903
4527,4903
4271,4903
4262,4903
4252,4901
4243,4899
4233,4896
4225,4891
4216,4886
4209,4881
4202,4874
4195,4867
4189,4859
4184,4851
4180,4842
4177,4833
4175,4824
4173,4814
4173,4805
4173,4450
4173,4441
4175,4431
4177,4422
4180,4413
4184,4404
4189,4396
4195,4388
4202,4381
4209,4374
4216,4368
4225,4363
4233,4359
4243,4356
4252,4354
4262,4352
4271,4352
4527,4352
4537,4352
" /> 
<polyline style="fill-rule:evenodd;"
points="5344,4352
5353,4354
5363,4356
5372,4359
5381,4363
5389,4368
5397,4374
5404,4381
5410,4388
5416,4396
5421,4404
5425,4413
5428,4422
5431,4431
5432,4441
5433,4450
5433,4805
5432,4814
5431,4824
5428,4833
5425,4842
5421,4851
5416,4859
5410,4867
5404,4874
5397,4881
5389,4886
5381,4891
5372,4896
5363,4899
5353,4901
5344,4903
5334,4903
5078,4903
5069,4903
5059,4901
5050,4899
5041,4896
5032,4891
5024,4886
5016,4881
5009,4874
5002,4867
4996,4859
4991,4851
4987,4842
4984,4833
4982,4824
4980,4814
4980,4805
4980,4450
4980,4441
4982,4431
4984,4422
4987,4413
4991,4404
4996,4396
5002,4388
5009,4381
5016,4374
5024,4368
5032,4363
5041,4359
5050,4356
5059,4354
5069,4352
5078,4352
5334,4352
5344,4352
" /> 
</g>
<g style="fill:#FFFFFF; fill-opacity:1.0; 
stroke:#FFFFFF; stroke-width:0; stroke-opacity:1; 
stroke-linecap:round; stroke-linejoin:round;">
<circle cx="2271.65" cy="7029.53" r="177.165" /> 
</g>
<g style="fill:#FFFFFF; fill-opacity:1.0; 
stroke:#FFFFFF; stroke-width:39.3701; stroke-opacity:1; 
stroke-linecap:round; stroke-linejoin:round;">
</g>
<g style="fill:#FFFFFF; fill-opacity:1.0; 
stroke:#FFFFFF; stroke-width:0; stroke-opacity:1; 
stroke-linecap:round; stroke-linejoin:round;">
<circle cx="2271.65" cy="5848.43" r="177.165" /> 
</g>
<g style="fill:#FFFFFF; fill-opacity:1.0; 
stroke:#FFFFFF; stroke-width:39.3701; stroke-opacity:1; 
stroke-linecap:round; stroke-linejoin:round;">
</g>
<g style="fill:#000000; fill-opacity:1.0; 
stroke:#000000; stroke-width:39.3701; stroke-opacity:1; 
stroke-linecap:round; stroke-linejoin:round;">
</g>
<g style="fill:#878700; fill-opacity:1.0; 
stroke:#878700; stroke-width:39.3701; stroke-opacity:1; 
stroke-linecap:round; stroke-linejoin:round;">
</g>
<g style="fill:#878700; fill-opacity:1.0; 
stroke:#878700; stroke-width:78.7402; stroke-opacity:1; 
stroke-linecap:round; stroke-linejoin:round;">
</g>
<g style="fill:#878700; fill-opacity:0.0; 
stroke:#878700; stroke-width:78.7402; stroke-opacity:1; 
stroke-linecap:round; stroke-linejoin:round;">
<path d="M5817 2597
L5801 2597
" />
<path d="M1551 8284
L1555 8301
" />
<path d="M1561 9475
L1555 9491
" />
<path d="M11419 10329
L11420 10310
" />
<path d="M12713 13203
L12717 13192
" />
<path d="M10387 15909
L10401 15903
" />
<path d="M11420 10310
L11420 8176
" />
<path d="M11015 10956
L11399 10380
" />
<path d="M1591 4690
L1579 4702
" />
<path d="M12875 12385
L12864 12374
" />
<path d="M1768 13994
L2592 15879
" />
<path d="M11419 4765
L11416 4748
" />
<path d="M11420 4783
L11419 4765
" />
<path d="M1561 4732
L1555 4748
" />
<path d="M11353 8065
L11025 7892
" />
<path d="M11368 8074
L11353 8065
" />
<path d="M11355 7709
L11369 7700
" />
<path d="M11025 7892
L11355 7709
" />
<path d="M1569 4717
L1561 4732
" />
<path d="M294 13233
L304 13239
" />
<path d="M276 13204
L280 13215
" />
<path d="M11391 4702
L11379 4690
" />
<path d="M11402 4717
L11391 4702
" />
<path d="M1570 8334
L2102 9159
" />
<path d="M11403 7663
L11410 7648
" />
<path d="M11393 7676
L11403 7663
" />
<path d="M88 12399
L85 12414
" />
<path d="M1603 9423
L1590 9434
" />
<path d="M1550 9525
L1550 10992
" />
<path d="M11420 8176
L11419 8159
" />
<path d="M1706 11148
L106 12374
" />
<path d="M10371 15911
L10387 15909
" />
<path d="M1550 8266
L1551 8284
" />
<path d="M11415 10347
L11419 10329
" />
<path d="M1555 9491
L1551 9508
" />
<path d="M11416 8142
L11410 8126
" />
<path d="M11419 8159
L11416 8142
" />
<path d="M1605 4679
L1591 4690
" />
<path d="M5785 2599
L5770 2604
" />
<path d="M1605 11096
L1620 11104
" />
<path d="M1550 4783
L1550 8266
" />
<path d="M304 13239
L1768 13994
" />
<path d="M1555 4748
L1551 4765
" />
<path d="M12717 13192
L12884 12429
" />
<path d="M7160 2597
L7146 2598
" />
<path d="M7174 2598
L7160 2597
" />
<path d="M1591 11085
L1605 11096
" />
<path d="M5866 2609
L5842 2601
" />
<path d="M6492 2909
L5866 2609
" />
<path d="M12882 12398
L12875 12385
" />
<path d="M1569 9460
L1561 9475
" />
<path d="M11408 10364
L11415 10347
" />
<path d="M11381 8085
L11368 8074
" />
<path d="M11392 8097
L11381 8085
" />
<path d="M1590 9434
L1578 9446
" />
<path d="M85 12414
L87 12430
" />
<path d="M106 12374
L95 12385
" />
<path d="M12707 13213
L12713 13203
" />
<path d="M1552 11010
L1555 11027
" />
<path d="M1578 9446
L1569 9460
" />
<path d="M7132 2600
L7118 2604
" />
<path d="M7146 2598
L7132 2600
" />
<path d="M1579 4702
L1569 4717
" />
<path d="M11402 8111
L11392 8097
" />
<path d="M11410 8126
L11402 8111
" />
<path d="M2600 15892
L2612 15902
" />
<path d="M1561 11043
L1569 11058
" />
<path d="M5755 2610
L1620 4670
" />
<path d="M2592 15879
L2600 15892
" />
<path d="M1550 10992
L1552 11010
" />
<path d="M1555 11027
L1561 11043
" />
<path d="M12884 12429
L12886 12413
" />
<path d="M1551 4765
L1550 4783
" />
<path d="M280 13215
L286 13225
" />
<path d="M7104 2610
L6492 2909
" />
<path d="M7118 2604
L7104 2610
" />
<path d="M95 12385
L88 12399
" />
<path d="M11245 13994
L12689 13228
" />
<path d="M1620 11104
L1706 11148
" />
<path d="M12699 13222
L12707 13213
" />
<path d="M10401 15903
L10413 15892
" />
<path d="M12864 12374
L11015 10956
" />
<path d="M11410 4732
L11402 4717
" />
<path d="M11416 4748
L11410 4732
" />
<path d="M87 12430
L276 13204
" />
<path d="M2626 15909
L2641 15911
" />
<path d="M286 13225
L294 13233
" />
<path d="M1618 9414
L1603 9423
" />
<path d="M11382 7689
L11393 7676
" />
<path d="M11369 7700
L11382 7689
" />
<path d="M5801 2597
L5785 2599
" />
<path d="M1620 4670
L1605 4679
" />
<path d="M1579 11072
L1591 11085
" />
<path d="M11399 10380
L11408 10364
" />
<path d="M10413 15892
L10421 15879
" />
<path d="M1555 8301
L1562 8318
" />
<path d="M10421 15879
L11245 13994
" />
<path d="M11420 7599
L11420 4783
" />
<path d="M11419 7616
L11420 7599
" />
<path d="M1562 8318
L1570 8334
" />
<path d="M7216 2610
L7202 2604
" />
<path d="M11350 4670
L7216 2610
" />
<path d="M5817 2597
L5817 2597
" />
<path d="M5842 2601
L5817 2597
" />
<path d="M7189 2600
L7174 2598
" />
<path d="M7202 2604
L7189 2600
" />
<path d="M11416 7632
L11419 7616
" />
<path d="M11410 7648
L11416 7632
" />
<path d="M1569 11058
L1579 11072
" />
<path d="M12689 13228
L12699 13222
" />
<path d="M11366 4679
L11350 4670
" />
<path d="M11379 4690
L11366 4679
" />
<path d="M2641 15911
L10371 15911
" />
<path d="M1551 9508
L1550 9525
" />
<path d="M12886 12413
L12882 12398
" />
<path d="M2102 9159
L1618 9414
" />
<path d="M5770 2604
L5755 2610
" />
<path d="M2612 15902
L2626 15909
" />
</g> 
</svg>
