G04 #@! TF.GenerationSoftware,KiCad,Pcbnew,5.0.2+dfsg1-1*
G04 #@! TF.CreationDate,2019-05-16T07:21:41+02:00*
G04 #@! TF.ProjectId,5thpcbway,35746870-6362-4776-9179-2e6b69636164,rev?*
G04 #@! TF.SameCoordinates,Original*
G04 #@! TF.FileFunction,Copper,L2,Bot*
G04 #@! TF.FilePolarity,Positive*
%FSLAX46Y46*%
G04 Gerber Fmt 4.6, Leading zero omitted, Abs format (unit mm)*
G04 Created by KiCad (PCBNEW 5.0.2+dfsg1-1) date jue 16 may 2019 07:21:41 CEST*
%MOMM*%
%LPD*%
G01*
G04 APERTURE LIST*
G04 #@! TA.AperFunction,ComponentPad*
%ADD10C,4.000000*%
G04 #@! TD*
G04 #@! TA.AperFunction,SMDPad,CuDef*
%ADD11R,3.960000X3.960000*%
G04 #@! TD*
G04 #@! TA.AperFunction,SMDPad,CuDef*
%ADD12R,5.100000X1.640000*%
G04 #@! TD*
G04 #@! TA.AperFunction,SMDPad,CuDef*
%ADD13R,1.500000X0.700000*%
G04 #@! TD*
G04 #@! TA.AperFunction,SMDPad,CuDef*
%ADD14R,0.800000X1.000000*%
G04 #@! TD*
G04 #@! TA.AperFunction,Conductor*
%ADD15C,0.100000*%
G04 #@! TD*
G04 #@! TA.AperFunction,SMDPad,CuDef*
%ADD16C,1.150000*%
G04 #@! TD*
G04 #@! TA.AperFunction,ViaPad*
%ADD17C,0.800000*%
G04 #@! TD*
G04 #@! TA.AperFunction,Conductor*
%ADD18C,0.250000*%
G04 #@! TD*
G04 #@! TA.AperFunction,Conductor*
%ADD19C,0.254000*%
G04 #@! TD*
G04 APERTURE END LIST*
D10*
G04 #@! TO.P,REF\002A\002A,1*
G04 #@! TO.N,N/C*
X186650000Y-56650000D03*
G04 #@! TD*
D11*
G04 #@! TO.P,BT1,2*
G04 #@! TO.N,GND*
X186600000Y-78600000D03*
D12*
G04 #@! TO.P,BT1,1*
G04 #@! TO.N,Net-(BT1-Pad1)*
X186600000Y-89960000D03*
X186600000Y-67240000D03*
G04 #@! TD*
D13*
G04 #@! TO.P,SW1,1*
G04 #@! TO.N,Net-(R1-Pad2)*
X171830000Y-70250000D03*
G04 #@! TO.P,SW1,2*
G04 #@! TO.N,Net-(BT1-Pad1)*
X171830000Y-67250000D03*
G04 #@! TO.P,SW1,3*
G04 #@! TO.N,Net-(SW1-Pad3)*
X171830000Y-65750000D03*
D14*
G04 #@! TO.P,SW1,*
G04 #@! TO.N,*
X168970000Y-71650000D03*
X168970000Y-64350000D03*
X171180000Y-64350000D03*
X171180000Y-71650000D03*
G04 #@! TD*
D15*
G04 #@! TO.N,Net-(D2-Pad2)*
G04 #@! TO.C,R2*
G36*
X197174505Y-60301204D02*
X197198773Y-60304804D01*
X197222572Y-60310765D01*
X197245671Y-60319030D01*
X197267850Y-60329520D01*
X197288893Y-60342132D01*
X197308599Y-60356747D01*
X197326777Y-60373223D01*
X197343253Y-60391401D01*
X197357868Y-60411107D01*
X197370480Y-60432150D01*
X197380970Y-60454329D01*
X197389235Y-60477428D01*
X197395196Y-60501227D01*
X197398796Y-60525495D01*
X197400000Y-60549999D01*
X197400000Y-61450001D01*
X197398796Y-61474505D01*
X197395196Y-61498773D01*
X197389235Y-61522572D01*
X197380970Y-61545671D01*
X197370480Y-61567850D01*
X197357868Y-61588893D01*
X197343253Y-61608599D01*
X197326777Y-61626777D01*
X197308599Y-61643253D01*
X197288893Y-61657868D01*
X197267850Y-61670480D01*
X197245671Y-61680970D01*
X197222572Y-61689235D01*
X197198773Y-61695196D01*
X197174505Y-61698796D01*
X197150001Y-61700000D01*
X196499999Y-61700000D01*
X196475495Y-61698796D01*
X196451227Y-61695196D01*
X196427428Y-61689235D01*
X196404329Y-61680970D01*
X196382150Y-61670480D01*
X196361107Y-61657868D01*
X196341401Y-61643253D01*
X196323223Y-61626777D01*
X196306747Y-61608599D01*
X196292132Y-61588893D01*
X196279520Y-61567850D01*
X196269030Y-61545671D01*
X196260765Y-61522572D01*
X196254804Y-61498773D01*
X196251204Y-61474505D01*
X196250000Y-61450001D01*
X196250000Y-60549999D01*
X196251204Y-60525495D01*
X196254804Y-60501227D01*
X196260765Y-60477428D01*
X196269030Y-60454329D01*
X196279520Y-60432150D01*
X196292132Y-60411107D01*
X196306747Y-60391401D01*
X196323223Y-60373223D01*
X196341401Y-60356747D01*
X196361107Y-60342132D01*
X196382150Y-60329520D01*
X196404329Y-60319030D01*
X196427428Y-60310765D01*
X196451227Y-60304804D01*
X196475495Y-60301204D01*
X196499999Y-60300000D01*
X197150001Y-60300000D01*
X197174505Y-60301204D01*
X197174505Y-60301204D01*
G37*
D16*
G04 #@! TD*
G04 #@! TO.P,R2,2*
G04 #@! TO.N,Net-(D2-Pad2)*
X196825000Y-61000000D03*
D15*
G04 #@! TO.N,Net-(R1-Pad2)*
G04 #@! TO.C,R2*
G36*
X195124505Y-60301204D02*
X195148773Y-60304804D01*
X195172572Y-60310765D01*
X195195671Y-60319030D01*
X195217850Y-60329520D01*
X195238893Y-60342132D01*
X195258599Y-60356747D01*
X195276777Y-60373223D01*
X195293253Y-60391401D01*
X195307868Y-60411107D01*
X195320480Y-60432150D01*
X195330970Y-60454329D01*
X195339235Y-60477428D01*
X195345196Y-60501227D01*
X195348796Y-60525495D01*
X195350000Y-60549999D01*
X195350000Y-61450001D01*
X195348796Y-61474505D01*
X195345196Y-61498773D01*
X195339235Y-61522572D01*
X195330970Y-61545671D01*
X195320480Y-61567850D01*
X195307868Y-61588893D01*
X195293253Y-61608599D01*
X195276777Y-61626777D01*
X195258599Y-61643253D01*
X195238893Y-61657868D01*
X195217850Y-61670480D01*
X195195671Y-61680970D01*
X195172572Y-61689235D01*
X195148773Y-61695196D01*
X195124505Y-61698796D01*
X195100001Y-61700000D01*
X194449999Y-61700000D01*
X194425495Y-61698796D01*
X194401227Y-61695196D01*
X194377428Y-61689235D01*
X194354329Y-61680970D01*
X194332150Y-61670480D01*
X194311107Y-61657868D01*
X194291401Y-61643253D01*
X194273223Y-61626777D01*
X194256747Y-61608599D01*
X194242132Y-61588893D01*
X194229520Y-61567850D01*
X194219030Y-61545671D01*
X194210765Y-61522572D01*
X194204804Y-61498773D01*
X194201204Y-61474505D01*
X194200000Y-61450001D01*
X194200000Y-60549999D01*
X194201204Y-60525495D01*
X194204804Y-60501227D01*
X194210765Y-60477428D01*
X194219030Y-60454329D01*
X194229520Y-60432150D01*
X194242132Y-60411107D01*
X194256747Y-60391401D01*
X194273223Y-60373223D01*
X194291401Y-60356747D01*
X194311107Y-60342132D01*
X194332150Y-60329520D01*
X194354329Y-60319030D01*
X194377428Y-60310765D01*
X194401227Y-60304804D01*
X194425495Y-60301204D01*
X194449999Y-60300000D01*
X195100001Y-60300000D01*
X195124505Y-60301204D01*
X195124505Y-60301204D01*
G37*
D16*
G04 #@! TD*
G04 #@! TO.P,R2,1*
G04 #@! TO.N,Net-(R1-Pad2)*
X194775000Y-61000000D03*
D15*
G04 #@! TO.N,Net-(D1-Pad2)*
G04 #@! TO.C,R1*
G36*
X178574505Y-60301204D02*
X178598773Y-60304804D01*
X178622572Y-60310765D01*
X178645671Y-60319030D01*
X178667850Y-60329520D01*
X178688893Y-60342132D01*
X178708599Y-60356747D01*
X178726777Y-60373223D01*
X178743253Y-60391401D01*
X178757868Y-60411107D01*
X178770480Y-60432150D01*
X178780970Y-60454329D01*
X178789235Y-60477428D01*
X178795196Y-60501227D01*
X178798796Y-60525495D01*
X178800000Y-60549999D01*
X178800000Y-61450001D01*
X178798796Y-61474505D01*
X178795196Y-61498773D01*
X178789235Y-61522572D01*
X178780970Y-61545671D01*
X178770480Y-61567850D01*
X178757868Y-61588893D01*
X178743253Y-61608599D01*
X178726777Y-61626777D01*
X178708599Y-61643253D01*
X178688893Y-61657868D01*
X178667850Y-61670480D01*
X178645671Y-61680970D01*
X178622572Y-61689235D01*
X178598773Y-61695196D01*
X178574505Y-61698796D01*
X178550001Y-61700000D01*
X177899999Y-61700000D01*
X177875495Y-61698796D01*
X177851227Y-61695196D01*
X177827428Y-61689235D01*
X177804329Y-61680970D01*
X177782150Y-61670480D01*
X177761107Y-61657868D01*
X177741401Y-61643253D01*
X177723223Y-61626777D01*
X177706747Y-61608599D01*
X177692132Y-61588893D01*
X177679520Y-61567850D01*
X177669030Y-61545671D01*
X177660765Y-61522572D01*
X177654804Y-61498773D01*
X177651204Y-61474505D01*
X177650000Y-61450001D01*
X177650000Y-60549999D01*
X177651204Y-60525495D01*
X177654804Y-60501227D01*
X177660765Y-60477428D01*
X177669030Y-60454329D01*
X177679520Y-60432150D01*
X177692132Y-60411107D01*
X177706747Y-60391401D01*
X177723223Y-60373223D01*
X177741401Y-60356747D01*
X177761107Y-60342132D01*
X177782150Y-60329520D01*
X177804329Y-60319030D01*
X177827428Y-60310765D01*
X177851227Y-60304804D01*
X177875495Y-60301204D01*
X177899999Y-60300000D01*
X178550001Y-60300000D01*
X178574505Y-60301204D01*
X178574505Y-60301204D01*
G37*
D16*
G04 #@! TD*
G04 #@! TO.P,R1,1*
G04 #@! TO.N,Net-(D1-Pad2)*
X178225000Y-61000000D03*
D15*
G04 #@! TO.N,Net-(R1-Pad2)*
G04 #@! TO.C,R1*
G36*
X176524505Y-60301204D02*
X176548773Y-60304804D01*
X176572572Y-60310765D01*
X176595671Y-60319030D01*
X176617850Y-60329520D01*
X176638893Y-60342132D01*
X176658599Y-60356747D01*
X176676777Y-60373223D01*
X176693253Y-60391401D01*
X176707868Y-60411107D01*
X176720480Y-60432150D01*
X176730970Y-60454329D01*
X176739235Y-60477428D01*
X176745196Y-60501227D01*
X176748796Y-60525495D01*
X176750000Y-60549999D01*
X176750000Y-61450001D01*
X176748796Y-61474505D01*
X176745196Y-61498773D01*
X176739235Y-61522572D01*
X176730970Y-61545671D01*
X176720480Y-61567850D01*
X176707868Y-61588893D01*
X176693253Y-61608599D01*
X176676777Y-61626777D01*
X176658599Y-61643253D01*
X176638893Y-61657868D01*
X176617850Y-61670480D01*
X176595671Y-61680970D01*
X176572572Y-61689235D01*
X176548773Y-61695196D01*
X176524505Y-61698796D01*
X176500001Y-61700000D01*
X175849999Y-61700000D01*
X175825495Y-61698796D01*
X175801227Y-61695196D01*
X175777428Y-61689235D01*
X175754329Y-61680970D01*
X175732150Y-61670480D01*
X175711107Y-61657868D01*
X175691401Y-61643253D01*
X175673223Y-61626777D01*
X175656747Y-61608599D01*
X175642132Y-61588893D01*
X175629520Y-61567850D01*
X175619030Y-61545671D01*
X175610765Y-61522572D01*
X175604804Y-61498773D01*
X175601204Y-61474505D01*
X175600000Y-61450001D01*
X175600000Y-60549999D01*
X175601204Y-60525495D01*
X175604804Y-60501227D01*
X175610765Y-60477428D01*
X175619030Y-60454329D01*
X175629520Y-60432150D01*
X175642132Y-60411107D01*
X175656747Y-60391401D01*
X175673223Y-60373223D01*
X175691401Y-60356747D01*
X175711107Y-60342132D01*
X175732150Y-60329520D01*
X175754329Y-60319030D01*
X175777428Y-60310765D01*
X175801227Y-60304804D01*
X175825495Y-60301204D01*
X175849999Y-60300000D01*
X176500001Y-60300000D01*
X176524505Y-60301204D01*
X176524505Y-60301204D01*
G37*
D16*
G04 #@! TD*
G04 #@! TO.P,R1,2*
G04 #@! TO.N,Net-(R1-Pad2)*
X176175000Y-61000000D03*
D17*
G04 #@! TO.N,Net-(D1-Pad2)*
X170800000Y-90800000D03*
X178200000Y-64800000D03*
X178200000Y-67599990D03*
G04 #@! TO.N,Net-(R1-Pad2)*
X176000000Y-62800000D03*
X176000000Y-67000000D03*
G04 #@! TO.N,Net-(D2-Pad2)*
X199000000Y-91000000D03*
G04 #@! TO.N,GND*
X205000000Y-92999998D03*
X168800000Y-93400000D03*
G04 #@! TD*
D18*
G04 #@! TO.N,Net-(D1-Pad2)*
X178225000Y-61000000D02*
X178225000Y-64775000D01*
X178225000Y-64775000D02*
X178200000Y-64800000D01*
X178200000Y-83400000D02*
X178200000Y-68165675D01*
X178200000Y-68165675D02*
X178200000Y-67599990D01*
X170800000Y-90800000D02*
X178200000Y-83400000D01*
G04 #@! TO.N,Net-(R1-Pad2)*
X176000000Y-61175000D02*
X176175000Y-61000000D01*
X176000000Y-62800000D02*
X176000000Y-61175000D01*
X176175000Y-59825000D02*
X176175000Y-61000000D01*
X176600000Y-59400000D02*
X176175000Y-59825000D01*
X194400000Y-59400000D02*
X176600000Y-59400000D01*
X194775000Y-61000000D02*
X194775000Y-59775000D01*
X194775000Y-59775000D02*
X194400000Y-59400000D01*
X176000000Y-69000000D02*
X176000000Y-67000000D01*
X176000000Y-69000000D02*
X174750000Y-70250000D01*
X174750000Y-70250000D02*
X171830000Y-70250000D01*
G04 #@! TO.N,Net-(D2-Pad2)*
X196825000Y-61000000D02*
X196825000Y-88825000D01*
X198600001Y-90600001D02*
X199000000Y-91000000D01*
X196825000Y-88825000D02*
X198600001Y-90600001D01*
G04 #@! TO.N,GND*
X179200000Y-89800000D02*
X182399998Y-92999998D01*
X182399998Y-92999998D02*
X204434315Y-92999998D01*
X204434315Y-92999998D02*
X205000000Y-92999998D01*
X186600000Y-78600000D02*
X186600000Y-80830000D01*
X179200000Y-88230000D02*
X179200000Y-89800000D01*
X186600000Y-80830000D02*
X179200000Y-88230000D01*
X175000000Y-93400000D02*
X169365685Y-93400000D01*
X169365685Y-93400000D02*
X168800000Y-93400000D01*
X186600000Y-81800000D02*
X175000000Y-93400000D01*
X186600000Y-78600000D02*
X186600000Y-81800000D01*
G04 #@! TO.N,Net-(BT1-Pad1)*
X171830000Y-67250000D02*
X172230000Y-67250000D01*
X182469999Y-66274999D02*
X183810000Y-67615000D01*
X173805001Y-66274999D02*
X182469999Y-66274999D01*
X171830000Y-67250000D02*
X172830000Y-67250000D01*
X172830000Y-67250000D02*
X173805001Y-66274999D01*
X186230000Y-67615000D02*
X186600000Y-67245000D01*
X183810000Y-67615000D02*
X186230000Y-67615000D01*
X186600000Y-68500000D02*
X186600000Y-67245000D01*
X189390000Y-71290000D02*
X186600000Y-68500000D01*
X189390000Y-80355002D02*
X189390000Y-71290000D01*
X186600000Y-83145002D02*
X189390000Y-80355002D01*
X186600000Y-83145002D02*
X186600000Y-89955000D01*
G04 #@! TD*
D19*
G04 #@! TO.N,GND*
G36*
X185126428Y-54447119D02*
X184416155Y-55157392D01*
X184015000Y-56125866D01*
X184015000Y-57174134D01*
X184416155Y-58142608D01*
X184913547Y-58640000D01*
X176674848Y-58640000D01*
X176600000Y-58625112D01*
X176525152Y-58640000D01*
X176525148Y-58640000D01*
X176351605Y-58674520D01*
X176303462Y-58684096D01*
X176209718Y-58746734D01*
X176052071Y-58852071D01*
X176009669Y-58915530D01*
X175690530Y-59234669D01*
X175627071Y-59277071D01*
X175459096Y-59528464D01*
X175415000Y-59750149D01*
X175415000Y-59750153D01*
X175407682Y-59786944D01*
X175215414Y-59915414D01*
X175020873Y-60206564D01*
X174952560Y-60549999D01*
X174952560Y-61450001D01*
X175020873Y-61793436D01*
X175215414Y-62084586D01*
X175237168Y-62099121D01*
X175122569Y-62213720D01*
X174965000Y-62594126D01*
X174965000Y-63005874D01*
X175122569Y-63386280D01*
X175413720Y-63677431D01*
X175794126Y-63835000D01*
X176205874Y-63835000D01*
X176586280Y-63677431D01*
X176877431Y-63386280D01*
X177035000Y-63005874D01*
X177035000Y-62594126D01*
X176891281Y-62247158D01*
X177134586Y-62084586D01*
X177200000Y-61986687D01*
X177265414Y-62084586D01*
X177465000Y-62217946D01*
X177465001Y-64071288D01*
X177322569Y-64213720D01*
X177165000Y-64594126D01*
X177165000Y-65005874D01*
X177322569Y-65386280D01*
X177451288Y-65514999D01*
X173879849Y-65514999D01*
X173805001Y-65500111D01*
X173730153Y-65514999D01*
X173730149Y-65514999D01*
X173508464Y-65559095D01*
X173257072Y-65727070D01*
X173227440Y-65771417D01*
X173227440Y-65400000D01*
X173178157Y-65152235D01*
X173037809Y-64942191D01*
X172827765Y-64801843D01*
X172580000Y-64752560D01*
X172227440Y-64752560D01*
X172227440Y-63850000D01*
X172178157Y-63602235D01*
X172037809Y-63392191D01*
X171827765Y-63251843D01*
X171580000Y-63202560D01*
X170780000Y-63202560D01*
X170532235Y-63251843D01*
X170322191Y-63392191D01*
X170181843Y-63602235D01*
X170132560Y-63850000D01*
X170132560Y-64850000D01*
X170181843Y-65097765D01*
X170322191Y-65307809D01*
X170435798Y-65383720D01*
X170432560Y-65400000D01*
X170432560Y-65475782D01*
X170285820Y-65415000D01*
X169854180Y-65415000D01*
X169455397Y-65580182D01*
X169150182Y-65885397D01*
X168985000Y-66284180D01*
X168985000Y-66715820D01*
X169150182Y-67114603D01*
X169455397Y-67419818D01*
X169854180Y-67585000D01*
X170285820Y-67585000D01*
X170432560Y-67524218D01*
X170432560Y-67600000D01*
X170481843Y-67847765D01*
X170622191Y-68057809D01*
X170832235Y-68198157D01*
X171080000Y-68247440D01*
X172580000Y-68247440D01*
X172827765Y-68198157D01*
X173037809Y-68057809D01*
X173095031Y-67972171D01*
X173126537Y-67965904D01*
X173377929Y-67797929D01*
X173420331Y-67734470D01*
X174119803Y-67034999D01*
X174965000Y-67034999D01*
X174965000Y-67205874D01*
X175122569Y-67586280D01*
X175240001Y-67703712D01*
X175240000Y-68685198D01*
X174435199Y-69490000D01*
X173069754Y-69490000D01*
X173037809Y-69442191D01*
X172827765Y-69301843D01*
X172580000Y-69252560D01*
X171141903Y-69252560D01*
X170989818Y-68885397D01*
X170684603Y-68580182D01*
X170285820Y-68415000D01*
X169854180Y-68415000D01*
X169455397Y-68580182D01*
X169150182Y-68885397D01*
X168985000Y-69284180D01*
X168985000Y-69715820D01*
X169150182Y-70114603D01*
X169455397Y-70419818D01*
X169854180Y-70585000D01*
X170285820Y-70585000D01*
X170432560Y-70524218D01*
X170432560Y-70600000D01*
X170435798Y-70616280D01*
X170322191Y-70692191D01*
X170181843Y-70902235D01*
X170132560Y-71150000D01*
X170132560Y-72150000D01*
X170181843Y-72397765D01*
X170322191Y-72607809D01*
X170532235Y-72748157D01*
X170780000Y-72797440D01*
X171580000Y-72797440D01*
X171827765Y-72748157D01*
X172037809Y-72607809D01*
X172178157Y-72397765D01*
X172227440Y-72150000D01*
X172227440Y-71247440D01*
X172580000Y-71247440D01*
X172827765Y-71198157D01*
X173037809Y-71057809D01*
X173069754Y-71010000D01*
X174675153Y-71010000D01*
X174750000Y-71024888D01*
X174824847Y-71010000D01*
X174824852Y-71010000D01*
X175046537Y-70965904D01*
X175297929Y-70797929D01*
X175340331Y-70734470D01*
X176484473Y-69590329D01*
X176547929Y-69547929D01*
X176715904Y-69296537D01*
X176760000Y-69074852D01*
X176760000Y-69074847D01*
X176774888Y-69000000D01*
X176760000Y-68925153D01*
X176760000Y-67703711D01*
X176877431Y-67586280D01*
X177035000Y-67205874D01*
X177035000Y-67034999D01*
X177313751Y-67034999D01*
X177165000Y-67394116D01*
X177165000Y-67805864D01*
X177322569Y-68186270D01*
X177440001Y-68303702D01*
X177440000Y-83085197D01*
X170760199Y-89765000D01*
X170594126Y-89765000D01*
X170213720Y-89922569D01*
X169922569Y-90213720D01*
X169765000Y-90594126D01*
X169765000Y-91005874D01*
X169922569Y-91386280D01*
X170213720Y-91677431D01*
X170594126Y-91835000D01*
X171005874Y-91835000D01*
X171386280Y-91677431D01*
X171677431Y-91386280D01*
X171835000Y-91005874D01*
X171835000Y-90839801D01*
X178684476Y-83990327D01*
X178747929Y-83947929D01*
X178790327Y-83884476D01*
X178790329Y-83884474D01*
X178915903Y-83696538D01*
X178915904Y-83696537D01*
X178960000Y-83474852D01*
X178960000Y-83474848D01*
X178974888Y-83400001D01*
X178960000Y-83325154D01*
X178960000Y-78885750D01*
X183985000Y-78885750D01*
X183985000Y-80706309D01*
X184081673Y-80939698D01*
X184260301Y-81118327D01*
X184493690Y-81215000D01*
X186314250Y-81215000D01*
X186473000Y-81056250D01*
X186473000Y-78727000D01*
X184143750Y-78727000D01*
X183985000Y-78885750D01*
X178960000Y-78885750D01*
X178960000Y-76493691D01*
X183985000Y-76493691D01*
X183985000Y-78314250D01*
X184143750Y-78473000D01*
X186473000Y-78473000D01*
X186473000Y-76143750D01*
X186314250Y-75985000D01*
X184493690Y-75985000D01*
X184260301Y-76081673D01*
X184081673Y-76260302D01*
X183985000Y-76493691D01*
X178960000Y-76493691D01*
X178960000Y-68303701D01*
X179077431Y-68186270D01*
X179235000Y-67805864D01*
X179235000Y-67394116D01*
X179086249Y-67034999D01*
X182155198Y-67034999D01*
X183219671Y-68099473D01*
X183262071Y-68162929D01*
X183447706Y-68286966D01*
X183451843Y-68307765D01*
X183592191Y-68517809D01*
X183802235Y-68658157D01*
X184050000Y-68707440D01*
X185866374Y-68707440D01*
X185884096Y-68796536D01*
X186052071Y-69047929D01*
X186115530Y-69090331D01*
X188630001Y-71604803D01*
X188630000Y-75985000D01*
X186885750Y-75985000D01*
X186727000Y-76143750D01*
X186727000Y-78473000D01*
X186747000Y-78473000D01*
X186747000Y-78727000D01*
X186727000Y-78727000D01*
X186727000Y-81056250D01*
X186885750Y-81215000D01*
X187455201Y-81215000D01*
X186115530Y-82554671D01*
X186052071Y-82597073D01*
X185884096Y-82848466D01*
X185840000Y-83070151D01*
X185840000Y-83070155D01*
X185825112Y-83145002D01*
X185840000Y-83219849D01*
X185840001Y-88492560D01*
X184050000Y-88492560D01*
X183802235Y-88541843D01*
X183592191Y-88682191D01*
X183451843Y-88892235D01*
X183402560Y-89140000D01*
X183402560Y-90780000D01*
X183451843Y-91027765D01*
X183592191Y-91237809D01*
X183802235Y-91378157D01*
X184050000Y-91427440D01*
X189150000Y-91427440D01*
X189397765Y-91378157D01*
X189607809Y-91237809D01*
X189748157Y-91027765D01*
X189797440Y-90780000D01*
X189797440Y-89140000D01*
X189748157Y-88892235D01*
X189607809Y-88682191D01*
X189397765Y-88541843D01*
X189150000Y-88492560D01*
X187360000Y-88492560D01*
X187360000Y-83459803D01*
X189874473Y-80945331D01*
X189937929Y-80902931D01*
X190069308Y-80706309D01*
X190105904Y-80651540D01*
X190115480Y-80603397D01*
X190150000Y-80429854D01*
X190150000Y-80429850D01*
X190164888Y-80355002D01*
X190150000Y-80280154D01*
X190150000Y-71364848D01*
X190164888Y-71290000D01*
X190150000Y-71215152D01*
X190150000Y-71215148D01*
X190112155Y-71024888D01*
X190105904Y-70993462D01*
X189980329Y-70805527D01*
X189937929Y-70742071D01*
X189874473Y-70699671D01*
X187882241Y-68707440D01*
X189150000Y-68707440D01*
X189397765Y-68658157D01*
X189607809Y-68517809D01*
X189748157Y-68307765D01*
X189797440Y-68060000D01*
X189797440Y-66420000D01*
X189748157Y-66172235D01*
X189607809Y-65962191D01*
X189397765Y-65821843D01*
X189150000Y-65772560D01*
X184050000Y-65772560D01*
X183802235Y-65821843D01*
X183592191Y-65962191D01*
X183451843Y-66172235D01*
X183450216Y-66180415D01*
X183060330Y-65790529D01*
X183017928Y-65727070D01*
X182766536Y-65559095D01*
X182544851Y-65514999D01*
X182544846Y-65514999D01*
X182469999Y-65500111D01*
X182395152Y-65514999D01*
X178948712Y-65514999D01*
X179077431Y-65386280D01*
X179235000Y-65005874D01*
X179235000Y-64594126D01*
X179077431Y-64213720D01*
X178985000Y-64121289D01*
X178985000Y-62217946D01*
X179184586Y-62084586D01*
X179379127Y-61793436D01*
X179447440Y-61450001D01*
X179447440Y-60549999D01*
X179379127Y-60206564D01*
X179348014Y-60160000D01*
X193651986Y-60160000D01*
X193620873Y-60206564D01*
X193552560Y-60549999D01*
X193552560Y-61450001D01*
X193620873Y-61793436D01*
X193815414Y-62084586D01*
X194106564Y-62279127D01*
X194449999Y-62347440D01*
X195100001Y-62347440D01*
X195443436Y-62279127D01*
X195734586Y-62084586D01*
X195800000Y-61986687D01*
X195865414Y-62084586D01*
X196065000Y-62217946D01*
X196065001Y-88750148D01*
X196050112Y-88825000D01*
X196109097Y-89121537D01*
X196194140Y-89248812D01*
X196277072Y-89372929D01*
X196340528Y-89415329D01*
X197965000Y-91039803D01*
X197965000Y-91205874D01*
X198122569Y-91586280D01*
X198413720Y-91877431D01*
X198794126Y-92035000D01*
X199205874Y-92035000D01*
X199586280Y-91877431D01*
X199877431Y-91586280D01*
X200035000Y-91205874D01*
X200035000Y-90794126D01*
X199877431Y-90413720D01*
X199586280Y-90122569D01*
X199205874Y-89965000D01*
X199039803Y-89965000D01*
X197585000Y-88510199D01*
X197585000Y-62217946D01*
X197784586Y-62084586D01*
X197979127Y-61793436D01*
X198047440Y-61450001D01*
X198047440Y-60549999D01*
X197979127Y-60206564D01*
X197784586Y-59915414D01*
X197493436Y-59720873D01*
X197150001Y-59652560D01*
X196499999Y-59652560D01*
X196156564Y-59720873D01*
X195865414Y-59915414D01*
X195800000Y-60013313D01*
X195734586Y-59915414D01*
X195546903Y-59790007D01*
X195549888Y-59774999D01*
X195535000Y-59700152D01*
X195535000Y-59700148D01*
X195490904Y-59478463D01*
X195322929Y-59227071D01*
X195259470Y-59184669D01*
X194990331Y-58915530D01*
X194947929Y-58852071D01*
X194696537Y-58684096D01*
X194474852Y-58640000D01*
X194474847Y-58640000D01*
X194400000Y-58625112D01*
X194325153Y-58640000D01*
X188386453Y-58640000D01*
X188883845Y-58142608D01*
X189285000Y-57174134D01*
X189285000Y-56125866D01*
X188883845Y-55157392D01*
X188142608Y-54416155D01*
X188121557Y-54407436D01*
X189094844Y-53931952D01*
X204312487Y-61513815D01*
X204312486Y-71738408D01*
X203215086Y-72347024D01*
X203090034Y-72414612D01*
X203040934Y-72475008D01*
X202981536Y-72525315D01*
X202949600Y-72587356D01*
X202905585Y-72641498D01*
X202883335Y-72716088D01*
X202847711Y-72785294D01*
X202841948Y-72854832D01*
X202822002Y-72921699D01*
X202829990Y-72999126D01*
X202823562Y-73076694D01*
X202844849Y-73143145D01*
X202852010Y-73212554D01*
X202889018Y-73281027D01*
X202912765Y-73355157D01*
X202957864Y-73408406D01*
X202991039Y-73469787D01*
X203051435Y-73518886D01*
X203101742Y-73578285D01*
X203228113Y-73643335D01*
X204312487Y-74216504D01*
X204312486Y-81966343D01*
X202970797Y-83977812D01*
X202933722Y-84010361D01*
X202890372Y-84098386D01*
X202876880Y-84118613D01*
X202858458Y-84163188D01*
X202804537Y-84272678D01*
X202802919Y-84297577D01*
X202793389Y-84320636D01*
X202793487Y-84442676D01*
X202785571Y-84564461D01*
X202793604Y-84588084D01*
X202793624Y-84613035D01*
X202840418Y-84725750D01*
X202879709Y-84841294D01*
X202896170Y-84860044D01*
X202905737Y-84883088D01*
X202992105Y-84969318D01*
X203023927Y-85005565D01*
X203043224Y-85020355D01*
X203112661Y-85089682D01*
X203158258Y-85108526D01*
X209738536Y-90152129D01*
X209236504Y-92438696D01*
X204148120Y-95137017D01*
X204117439Y-95142508D01*
X204019787Y-95205071D01*
X203982541Y-95224822D01*
X203958984Y-95244025D01*
X203871233Y-95300245D01*
X203846563Y-95335671D01*
X203813110Y-95362941D01*
X203763689Y-95454673D01*
X203746311Y-95479628D01*
X203729423Y-95518278D01*
X203674426Y-95620360D01*
X203671269Y-95651363D01*
X200773321Y-102283428D01*
X172525815Y-102283428D01*
X169626102Y-95647329D01*
X169622087Y-95611995D01*
X169567978Y-95514309D01*
X169552818Y-95479616D01*
X169532988Y-95451141D01*
X169480406Y-95356213D01*
X169450058Y-95332058D01*
X169427895Y-95300233D01*
X169336534Y-95241701D01*
X169309373Y-95220082D01*
X169275705Y-95202729D01*
X169181690Y-95142496D01*
X169146689Y-95136232D01*
X163975689Y-92471012D01*
X163407498Y-90145711D01*
X169082357Y-85796311D01*
X169165665Y-85748926D01*
X169241957Y-85650816D01*
X169323981Y-85557392D01*
X169331268Y-85535964D01*
X169345159Y-85518101D01*
X169378100Y-85398257D01*
X169418126Y-85280562D01*
X169416658Y-85257976D01*
X169422656Y-85236156D01*
X169407226Y-85112818D01*
X169399166Y-84988777D01*
X169389168Y-84968475D01*
X169386359Y-84946018D01*
X169324901Y-84837968D01*
X169269988Y-84726457D01*
X169252982Y-84711526D01*
X169241793Y-84691855D01*
X169143668Y-84615551D01*
X169050258Y-84533540D01*
X168959512Y-84502679D01*
X168825918Y-84435724D01*
X168825918Y-79267125D01*
X170465246Y-78405808D01*
X170564437Y-78366614D01*
X170645999Y-78287683D01*
X170734263Y-78216290D01*
X170750353Y-78186695D01*
X170774557Y-78163272D01*
X170819706Y-78059135D01*
X170873929Y-77959402D01*
X170877469Y-77925902D01*
X170890867Y-77894999D01*
X170892727Y-77781507D01*
X170904656Y-77668620D01*
X170895107Y-77636316D01*
X170895659Y-77602638D01*
X170853946Y-77497072D01*
X170821767Y-77388213D01*
X170754686Y-77305280D01*
X168825914Y-74313656D01*
X168825914Y-72797440D01*
X169370000Y-72797440D01*
X169617765Y-72748157D01*
X169827809Y-72607809D01*
X169968157Y-72397765D01*
X170017440Y-72150000D01*
X170017440Y-71150000D01*
X169968157Y-70902235D01*
X169827809Y-70692191D01*
X169617765Y-70551843D01*
X169370000Y-70502560D01*
X168825914Y-70502560D01*
X168825914Y-65497440D01*
X169370000Y-65497440D01*
X169617765Y-65448157D01*
X169827809Y-65307809D01*
X169968157Y-65097765D01*
X170017440Y-64850000D01*
X170017440Y-63850000D01*
X169968157Y-63602235D01*
X169827809Y-63392191D01*
X169617765Y-63251843D01*
X169370000Y-63202560D01*
X168825914Y-63202560D01*
X168825914Y-61513821D01*
X184047084Y-53930575D01*
X185126428Y-54447119D01*
X185126428Y-54447119D01*
G37*
X185126428Y-54447119D02*
X184416155Y-55157392D01*
X184015000Y-56125866D01*
X184015000Y-57174134D01*
X184416155Y-58142608D01*
X184913547Y-58640000D01*
X176674848Y-58640000D01*
X176600000Y-58625112D01*
X176525152Y-58640000D01*
X176525148Y-58640000D01*
X176351605Y-58674520D01*
X176303462Y-58684096D01*
X176209718Y-58746734D01*
X176052071Y-58852071D01*
X176009669Y-58915530D01*
X175690530Y-59234669D01*
X175627071Y-59277071D01*
X175459096Y-59528464D01*
X175415000Y-59750149D01*
X175415000Y-59750153D01*
X175407682Y-59786944D01*
X175215414Y-59915414D01*
X175020873Y-60206564D01*
X174952560Y-60549999D01*
X174952560Y-61450001D01*
X175020873Y-61793436D01*
X175215414Y-62084586D01*
X175237168Y-62099121D01*
X175122569Y-62213720D01*
X174965000Y-62594126D01*
X174965000Y-63005874D01*
X175122569Y-63386280D01*
X175413720Y-63677431D01*
X175794126Y-63835000D01*
X176205874Y-63835000D01*
X176586280Y-63677431D01*
X176877431Y-63386280D01*
X177035000Y-63005874D01*
X177035000Y-62594126D01*
X176891281Y-62247158D01*
X177134586Y-62084586D01*
X177200000Y-61986687D01*
X177265414Y-62084586D01*
X177465000Y-62217946D01*
X177465001Y-64071288D01*
X177322569Y-64213720D01*
X177165000Y-64594126D01*
X177165000Y-65005874D01*
X177322569Y-65386280D01*
X177451288Y-65514999D01*
X173879849Y-65514999D01*
X173805001Y-65500111D01*
X173730153Y-65514999D01*
X173730149Y-65514999D01*
X173508464Y-65559095D01*
X173257072Y-65727070D01*
X173227440Y-65771417D01*
X173227440Y-65400000D01*
X173178157Y-65152235D01*
X173037809Y-64942191D01*
X172827765Y-64801843D01*
X172580000Y-64752560D01*
X172227440Y-64752560D01*
X172227440Y-63850000D01*
X172178157Y-63602235D01*
X172037809Y-63392191D01*
X171827765Y-63251843D01*
X171580000Y-63202560D01*
X170780000Y-63202560D01*
X170532235Y-63251843D01*
X170322191Y-63392191D01*
X170181843Y-63602235D01*
X170132560Y-63850000D01*
X170132560Y-64850000D01*
X170181843Y-65097765D01*
X170322191Y-65307809D01*
X170435798Y-65383720D01*
X170432560Y-65400000D01*
X170432560Y-65475782D01*
X170285820Y-65415000D01*
X169854180Y-65415000D01*
X169455397Y-65580182D01*
X169150182Y-65885397D01*
X168985000Y-66284180D01*
X168985000Y-66715820D01*
X169150182Y-67114603D01*
X169455397Y-67419818D01*
X169854180Y-67585000D01*
X170285820Y-67585000D01*
X170432560Y-67524218D01*
X170432560Y-67600000D01*
X170481843Y-67847765D01*
X170622191Y-68057809D01*
X170832235Y-68198157D01*
X171080000Y-68247440D01*
X172580000Y-68247440D01*
X172827765Y-68198157D01*
X173037809Y-68057809D01*
X173095031Y-67972171D01*
X173126537Y-67965904D01*
X173377929Y-67797929D01*
X173420331Y-67734470D01*
X174119803Y-67034999D01*
X174965000Y-67034999D01*
X174965000Y-67205874D01*
X175122569Y-67586280D01*
X175240001Y-67703712D01*
X175240000Y-68685198D01*
X174435199Y-69490000D01*
X173069754Y-69490000D01*
X173037809Y-69442191D01*
X172827765Y-69301843D01*
X172580000Y-69252560D01*
X171141903Y-69252560D01*
X170989818Y-68885397D01*
X170684603Y-68580182D01*
X170285820Y-68415000D01*
X169854180Y-68415000D01*
X169455397Y-68580182D01*
X169150182Y-68885397D01*
X168985000Y-69284180D01*
X168985000Y-69715820D01*
X169150182Y-70114603D01*
X169455397Y-70419818D01*
X169854180Y-70585000D01*
X170285820Y-70585000D01*
X170432560Y-70524218D01*
X170432560Y-70600000D01*
X170435798Y-70616280D01*
X170322191Y-70692191D01*
X170181843Y-70902235D01*
X170132560Y-71150000D01*
X170132560Y-72150000D01*
X170181843Y-72397765D01*
X170322191Y-72607809D01*
X170532235Y-72748157D01*
X170780000Y-72797440D01*
X171580000Y-72797440D01*
X171827765Y-72748157D01*
X172037809Y-72607809D01*
X172178157Y-72397765D01*
X172227440Y-72150000D01*
X172227440Y-71247440D01*
X172580000Y-71247440D01*
X172827765Y-71198157D01*
X173037809Y-71057809D01*
X173069754Y-71010000D01*
X174675153Y-71010000D01*
X174750000Y-71024888D01*
X174824847Y-71010000D01*
X174824852Y-71010000D01*
X175046537Y-70965904D01*
X175297929Y-70797929D01*
X175340331Y-70734470D01*
X176484473Y-69590329D01*
X176547929Y-69547929D01*
X176715904Y-69296537D01*
X176760000Y-69074852D01*
X176760000Y-69074847D01*
X176774888Y-69000000D01*
X176760000Y-68925153D01*
X176760000Y-67703711D01*
X176877431Y-67586280D01*
X177035000Y-67205874D01*
X177035000Y-67034999D01*
X177313751Y-67034999D01*
X177165000Y-67394116D01*
X177165000Y-67805864D01*
X177322569Y-68186270D01*
X177440001Y-68303702D01*
X177440000Y-83085197D01*
X170760199Y-89765000D01*
X170594126Y-89765000D01*
X170213720Y-89922569D01*
X169922569Y-90213720D01*
X169765000Y-90594126D01*
X169765000Y-91005874D01*
X169922569Y-91386280D01*
X170213720Y-91677431D01*
X170594126Y-91835000D01*
X171005874Y-91835000D01*
X171386280Y-91677431D01*
X171677431Y-91386280D01*
X171835000Y-91005874D01*
X171835000Y-90839801D01*
X178684476Y-83990327D01*
X178747929Y-83947929D01*
X178790327Y-83884476D01*
X178790329Y-83884474D01*
X178915903Y-83696538D01*
X178915904Y-83696537D01*
X178960000Y-83474852D01*
X178960000Y-83474848D01*
X178974888Y-83400001D01*
X178960000Y-83325154D01*
X178960000Y-78885750D01*
X183985000Y-78885750D01*
X183985000Y-80706309D01*
X184081673Y-80939698D01*
X184260301Y-81118327D01*
X184493690Y-81215000D01*
X186314250Y-81215000D01*
X186473000Y-81056250D01*
X186473000Y-78727000D01*
X184143750Y-78727000D01*
X183985000Y-78885750D01*
X178960000Y-78885750D01*
X178960000Y-76493691D01*
X183985000Y-76493691D01*
X183985000Y-78314250D01*
X184143750Y-78473000D01*
X186473000Y-78473000D01*
X186473000Y-76143750D01*
X186314250Y-75985000D01*
X184493690Y-75985000D01*
X184260301Y-76081673D01*
X184081673Y-76260302D01*
X183985000Y-76493691D01*
X178960000Y-76493691D01*
X178960000Y-68303701D01*
X179077431Y-68186270D01*
X179235000Y-67805864D01*
X179235000Y-67394116D01*
X179086249Y-67034999D01*
X182155198Y-67034999D01*
X183219671Y-68099473D01*
X183262071Y-68162929D01*
X183447706Y-68286966D01*
X183451843Y-68307765D01*
X183592191Y-68517809D01*
X183802235Y-68658157D01*
X184050000Y-68707440D01*
X185866374Y-68707440D01*
X185884096Y-68796536D01*
X186052071Y-69047929D01*
X186115530Y-69090331D01*
X188630001Y-71604803D01*
X188630000Y-75985000D01*
X186885750Y-75985000D01*
X186727000Y-76143750D01*
X186727000Y-78473000D01*
X186747000Y-78473000D01*
X186747000Y-78727000D01*
X186727000Y-78727000D01*
X186727000Y-81056250D01*
X186885750Y-81215000D01*
X187455201Y-81215000D01*
X186115530Y-82554671D01*
X186052071Y-82597073D01*
X185884096Y-82848466D01*
X185840000Y-83070151D01*
X185840000Y-83070155D01*
X185825112Y-83145002D01*
X185840000Y-83219849D01*
X185840001Y-88492560D01*
X184050000Y-88492560D01*
X183802235Y-88541843D01*
X183592191Y-88682191D01*
X183451843Y-88892235D01*
X183402560Y-89140000D01*
X183402560Y-90780000D01*
X183451843Y-91027765D01*
X183592191Y-91237809D01*
X183802235Y-91378157D01*
X184050000Y-91427440D01*
X189150000Y-91427440D01*
X189397765Y-91378157D01*
X189607809Y-91237809D01*
X189748157Y-91027765D01*
X189797440Y-90780000D01*
X189797440Y-89140000D01*
X189748157Y-88892235D01*
X189607809Y-88682191D01*
X189397765Y-88541843D01*
X189150000Y-88492560D01*
X187360000Y-88492560D01*
X187360000Y-83459803D01*
X189874473Y-80945331D01*
X189937929Y-80902931D01*
X190069308Y-80706309D01*
X190105904Y-80651540D01*
X190115480Y-80603397D01*
X190150000Y-80429854D01*
X190150000Y-80429850D01*
X190164888Y-80355002D01*
X190150000Y-80280154D01*
X190150000Y-71364848D01*
X190164888Y-71290000D01*
X190150000Y-71215152D01*
X190150000Y-71215148D01*
X190112155Y-71024888D01*
X190105904Y-70993462D01*
X189980329Y-70805527D01*
X189937929Y-70742071D01*
X189874473Y-70699671D01*
X187882241Y-68707440D01*
X189150000Y-68707440D01*
X189397765Y-68658157D01*
X189607809Y-68517809D01*
X189748157Y-68307765D01*
X189797440Y-68060000D01*
X189797440Y-66420000D01*
X189748157Y-66172235D01*
X189607809Y-65962191D01*
X189397765Y-65821843D01*
X189150000Y-65772560D01*
X184050000Y-65772560D01*
X183802235Y-65821843D01*
X183592191Y-65962191D01*
X183451843Y-66172235D01*
X183450216Y-66180415D01*
X183060330Y-65790529D01*
X183017928Y-65727070D01*
X182766536Y-65559095D01*
X182544851Y-65514999D01*
X182544846Y-65514999D01*
X182469999Y-65500111D01*
X182395152Y-65514999D01*
X178948712Y-65514999D01*
X179077431Y-65386280D01*
X179235000Y-65005874D01*
X179235000Y-64594126D01*
X179077431Y-64213720D01*
X178985000Y-64121289D01*
X178985000Y-62217946D01*
X179184586Y-62084586D01*
X179379127Y-61793436D01*
X179447440Y-61450001D01*
X179447440Y-60549999D01*
X179379127Y-60206564D01*
X179348014Y-60160000D01*
X193651986Y-60160000D01*
X193620873Y-60206564D01*
X193552560Y-60549999D01*
X193552560Y-61450001D01*
X193620873Y-61793436D01*
X193815414Y-62084586D01*
X194106564Y-62279127D01*
X194449999Y-62347440D01*
X195100001Y-62347440D01*
X195443436Y-62279127D01*
X195734586Y-62084586D01*
X195800000Y-61986687D01*
X195865414Y-62084586D01*
X196065000Y-62217946D01*
X196065001Y-88750148D01*
X196050112Y-88825000D01*
X196109097Y-89121537D01*
X196194140Y-89248812D01*
X196277072Y-89372929D01*
X196340528Y-89415329D01*
X197965000Y-91039803D01*
X197965000Y-91205874D01*
X198122569Y-91586280D01*
X198413720Y-91877431D01*
X198794126Y-92035000D01*
X199205874Y-92035000D01*
X199586280Y-91877431D01*
X199877431Y-91586280D01*
X200035000Y-91205874D01*
X200035000Y-90794126D01*
X199877431Y-90413720D01*
X199586280Y-90122569D01*
X199205874Y-89965000D01*
X199039803Y-89965000D01*
X197585000Y-88510199D01*
X197585000Y-62217946D01*
X197784586Y-62084586D01*
X197979127Y-61793436D01*
X198047440Y-61450001D01*
X198047440Y-60549999D01*
X197979127Y-60206564D01*
X197784586Y-59915414D01*
X197493436Y-59720873D01*
X197150001Y-59652560D01*
X196499999Y-59652560D01*
X196156564Y-59720873D01*
X195865414Y-59915414D01*
X195800000Y-60013313D01*
X195734586Y-59915414D01*
X195546903Y-59790007D01*
X195549888Y-59774999D01*
X195535000Y-59700152D01*
X195535000Y-59700148D01*
X195490904Y-59478463D01*
X195322929Y-59227071D01*
X195259470Y-59184669D01*
X194990331Y-58915530D01*
X194947929Y-58852071D01*
X194696537Y-58684096D01*
X194474852Y-58640000D01*
X194474847Y-58640000D01*
X194400000Y-58625112D01*
X194325153Y-58640000D01*
X188386453Y-58640000D01*
X188883845Y-58142608D01*
X189285000Y-57174134D01*
X189285000Y-56125866D01*
X188883845Y-55157392D01*
X188142608Y-54416155D01*
X188121557Y-54407436D01*
X189094844Y-53931952D01*
X204312487Y-61513815D01*
X204312486Y-71738408D01*
X203215086Y-72347024D01*
X203090034Y-72414612D01*
X203040934Y-72475008D01*
X202981536Y-72525315D01*
X202949600Y-72587356D01*
X202905585Y-72641498D01*
X202883335Y-72716088D01*
X202847711Y-72785294D01*
X202841948Y-72854832D01*
X202822002Y-72921699D01*
X202829990Y-72999126D01*
X202823562Y-73076694D01*
X202844849Y-73143145D01*
X202852010Y-73212554D01*
X202889018Y-73281027D01*
X202912765Y-73355157D01*
X202957864Y-73408406D01*
X202991039Y-73469787D01*
X203051435Y-73518886D01*
X203101742Y-73578285D01*
X203228113Y-73643335D01*
X204312487Y-74216504D01*
X204312486Y-81966343D01*
X202970797Y-83977812D01*
X202933722Y-84010361D01*
X202890372Y-84098386D01*
X202876880Y-84118613D01*
X202858458Y-84163188D01*
X202804537Y-84272678D01*
X202802919Y-84297577D01*
X202793389Y-84320636D01*
X202793487Y-84442676D01*
X202785571Y-84564461D01*
X202793604Y-84588084D01*
X202793624Y-84613035D01*
X202840418Y-84725750D01*
X202879709Y-84841294D01*
X202896170Y-84860044D01*
X202905737Y-84883088D01*
X202992105Y-84969318D01*
X203023927Y-85005565D01*
X203043224Y-85020355D01*
X203112661Y-85089682D01*
X203158258Y-85108526D01*
X209738536Y-90152129D01*
X209236504Y-92438696D01*
X204148120Y-95137017D01*
X204117439Y-95142508D01*
X204019787Y-95205071D01*
X203982541Y-95224822D01*
X203958984Y-95244025D01*
X203871233Y-95300245D01*
X203846563Y-95335671D01*
X203813110Y-95362941D01*
X203763689Y-95454673D01*
X203746311Y-95479628D01*
X203729423Y-95518278D01*
X203674426Y-95620360D01*
X203671269Y-95651363D01*
X200773321Y-102283428D01*
X172525815Y-102283428D01*
X169626102Y-95647329D01*
X169622087Y-95611995D01*
X169567978Y-95514309D01*
X169552818Y-95479616D01*
X169532988Y-95451141D01*
X169480406Y-95356213D01*
X169450058Y-95332058D01*
X169427895Y-95300233D01*
X169336534Y-95241701D01*
X169309373Y-95220082D01*
X169275705Y-95202729D01*
X169181690Y-95142496D01*
X169146689Y-95136232D01*
X163975689Y-92471012D01*
X163407498Y-90145711D01*
X169082357Y-85796311D01*
X169165665Y-85748926D01*
X169241957Y-85650816D01*
X169323981Y-85557392D01*
X169331268Y-85535964D01*
X169345159Y-85518101D01*
X169378100Y-85398257D01*
X169418126Y-85280562D01*
X169416658Y-85257976D01*
X169422656Y-85236156D01*
X169407226Y-85112818D01*
X169399166Y-84988777D01*
X169389168Y-84968475D01*
X169386359Y-84946018D01*
X169324901Y-84837968D01*
X169269988Y-84726457D01*
X169252982Y-84711526D01*
X169241793Y-84691855D01*
X169143668Y-84615551D01*
X169050258Y-84533540D01*
X168959512Y-84502679D01*
X168825918Y-84435724D01*
X168825918Y-79267125D01*
X170465246Y-78405808D01*
X170564437Y-78366614D01*
X170645999Y-78287683D01*
X170734263Y-78216290D01*
X170750353Y-78186695D01*
X170774557Y-78163272D01*
X170819706Y-78059135D01*
X170873929Y-77959402D01*
X170877469Y-77925902D01*
X170890867Y-77894999D01*
X170892727Y-77781507D01*
X170904656Y-77668620D01*
X170895107Y-77636316D01*
X170895659Y-77602638D01*
X170853946Y-77497072D01*
X170821767Y-77388213D01*
X170754686Y-77305280D01*
X168825914Y-74313656D01*
X168825914Y-72797440D01*
X169370000Y-72797440D01*
X169617765Y-72748157D01*
X169827809Y-72607809D01*
X169968157Y-72397765D01*
X170017440Y-72150000D01*
X170017440Y-71150000D01*
X169968157Y-70902235D01*
X169827809Y-70692191D01*
X169617765Y-70551843D01*
X169370000Y-70502560D01*
X168825914Y-70502560D01*
X168825914Y-65497440D01*
X169370000Y-65497440D01*
X169617765Y-65448157D01*
X169827809Y-65307809D01*
X169968157Y-65097765D01*
X170017440Y-64850000D01*
X170017440Y-63850000D01*
X169968157Y-63602235D01*
X169827809Y-63392191D01*
X169617765Y-63251843D01*
X169370000Y-63202560D01*
X168825914Y-63202560D01*
X168825914Y-61513821D01*
X184047084Y-53930575D01*
X185126428Y-54447119D01*
G04 #@! TD*
M02*
