G04 #@! TF.GenerationSoftware,KiCad,Pcbnew,5.0.2+dfsg1-1*
G04 #@! TF.CreationDate,2019-05-16T07:21:41+02:00*
G04 #@! TF.ProjectId,5thpcbway,35746870-6362-4776-9179-2e6b69636164,rev?*
G04 #@! TF.SameCoordinates,Original*
G04 #@! TF.FileFunction,Soldermask,Top*
G04 #@! TF.FilePolarity,Negative*
%FSLAX46Y46*%
G04 Gerber Fmt 4.6, Leading zero omitted, Abs format (unit mm)*
G04 Created by KiCad (PCBNEW 5.0.2+dfsg1-1) date jue 16 may 2019 07:21:41 CEST*
%MOMM*%
%LPD*%
G01*
G04 APERTURE LIST*
%ADD10C,0.010000*%
%ADD11C,0.100000*%
G04 APERTURE END LIST*
D10*
G04 #@! TO.C,*
G36*
X189108250Y-59234978D02*
X189573238Y-59470193D01*
X190096614Y-59734744D01*
X190661129Y-60019923D01*
X191249533Y-60317024D01*
X191844575Y-60617337D01*
X192429007Y-60912157D01*
X192985577Y-61192775D01*
X193497037Y-61450483D01*
X193574417Y-61489454D01*
X193987510Y-61698031D01*
X194377329Y-61895908D01*
X194737423Y-62079744D01*
X195061346Y-62246194D01*
X195342647Y-62391918D01*
X195574879Y-62513571D01*
X195751593Y-62607812D01*
X195866340Y-62671298D01*
X195912672Y-62700686D01*
X195913334Y-62701843D01*
X195876273Y-62729651D01*
X195769343Y-62791036D01*
X195598921Y-62882770D01*
X195371388Y-63001623D01*
X195093120Y-63144367D01*
X194770497Y-63307772D01*
X194409897Y-63488609D01*
X194017699Y-63683650D01*
X193600280Y-63889665D01*
X193164019Y-64103425D01*
X192715295Y-64321701D01*
X192674834Y-64341303D01*
X191658834Y-64833361D01*
X186981000Y-62478901D01*
X186981000Y-58158379D01*
X189108250Y-59234978D01*
X189108250Y-59234978D01*
G37*
X189108250Y-59234978D02*
X189573238Y-59470193D01*
X190096614Y-59734744D01*
X190661129Y-60019923D01*
X191249533Y-60317024D01*
X191844575Y-60617337D01*
X192429007Y-60912157D01*
X192985577Y-61192775D01*
X193497037Y-61450483D01*
X193574417Y-61489454D01*
X193987510Y-61698031D01*
X194377329Y-61895908D01*
X194737423Y-62079744D01*
X195061346Y-62246194D01*
X195342647Y-62391918D01*
X195574879Y-62513571D01*
X195751593Y-62607812D01*
X195866340Y-62671298D01*
X195912672Y-62700686D01*
X195913334Y-62701843D01*
X195876273Y-62729651D01*
X195769343Y-62791036D01*
X195598921Y-62882770D01*
X195371388Y-63001623D01*
X195093120Y-63144367D01*
X194770497Y-63307772D01*
X194409897Y-63488609D01*
X194017699Y-63683650D01*
X193600280Y-63889665D01*
X193164019Y-64103425D01*
X192715295Y-64321701D01*
X192674834Y-64341303D01*
X191658834Y-64833361D01*
X186981000Y-62478901D01*
X186981000Y-58158379D01*
X189108250Y-59234978D01*
G36*
X187266750Y-65916109D02*
X187463173Y-66007923D01*
X187664843Y-66108829D01*
X187857316Y-66210793D01*
X188026153Y-66305780D01*
X188156910Y-66385756D01*
X188235148Y-66442686D01*
X188251000Y-66463686D01*
X188217373Y-66511886D01*
X188114842Y-66586877D01*
X187940931Y-66690156D01*
X187693165Y-66823218D01*
X187453485Y-66945414D01*
X186981000Y-67182374D01*
X186981000Y-65788208D01*
X187266750Y-65916109D01*
X187266750Y-65916109D01*
G37*
X187266750Y-65916109D02*
X187463173Y-66007923D01*
X187664843Y-66108829D01*
X187857316Y-66210793D01*
X188026153Y-66305780D01*
X188156910Y-66385756D01*
X188235148Y-66442686D01*
X188251000Y-66463686D01*
X188217373Y-66511886D01*
X188114842Y-66586877D01*
X187940931Y-66690156D01*
X187693165Y-66823218D01*
X187453485Y-66945414D01*
X186981000Y-67182374D01*
X186981000Y-65788208D01*
X187266750Y-65916109D01*
G36*
X186305126Y-60522745D02*
X186306586Y-62884834D01*
X187279409Y-63412153D01*
X187539407Y-63554876D01*
X187772154Y-63686080D01*
X187968019Y-63800056D01*
X188117374Y-63891093D01*
X188210590Y-63953481D01*
X188238437Y-63980856D01*
X188198421Y-64010614D01*
X188092997Y-64072786D01*
X187932416Y-64161778D01*
X187726928Y-64271999D01*
X187486782Y-64397856D01*
X187265183Y-64511870D01*
X186305724Y-65001500D01*
X186304695Y-66112750D01*
X186303265Y-66409308D01*
X186299760Y-66675809D01*
X186294507Y-66901231D01*
X186287832Y-67074553D01*
X186280060Y-67184754D01*
X186271917Y-67220938D01*
X186227058Y-67201221D01*
X186117945Y-67147457D01*
X185955228Y-67065068D01*
X185749555Y-66959478D01*
X185511576Y-66836110D01*
X185330000Y-66741306D01*
X184419834Y-66264737D01*
X184408147Y-66077619D01*
X184403696Y-65983662D01*
X184397403Y-65819147D01*
X184389744Y-65598154D01*
X184381193Y-65334759D01*
X184372228Y-65043041D01*
X184365791Y-64823678D01*
X184353829Y-64457419D01*
X184341100Y-64170218D01*
X184327186Y-63956465D01*
X184311667Y-63810552D01*
X184294123Y-63726869D01*
X184282003Y-63703736D01*
X184227698Y-63676343D01*
X184140047Y-63674852D01*
X184013083Y-63701432D01*
X183840837Y-63758256D01*
X183617344Y-63847493D01*
X183336636Y-63971315D01*
X182992746Y-64131891D01*
X182647370Y-64298383D01*
X181509906Y-64852419D01*
X179392988Y-63787266D01*
X178936019Y-63557034D01*
X178549478Y-63361469D01*
X178227952Y-63197600D01*
X177966026Y-63062456D01*
X177758288Y-62953069D01*
X177599323Y-62866466D01*
X177483719Y-62799678D01*
X177406062Y-62749735D01*
X177360937Y-62713665D01*
X177342933Y-62688500D01*
X177346635Y-62671267D01*
X177351384Y-62667042D01*
X177398337Y-62641260D01*
X177516215Y-62579997D01*
X177700229Y-62485673D01*
X177945593Y-62360706D01*
X178247520Y-62207515D01*
X178601222Y-62028519D01*
X179001914Y-61826137D01*
X179444807Y-61602787D01*
X179925115Y-61360888D01*
X180438052Y-61102859D01*
X180978829Y-60831119D01*
X181542660Y-60548086D01*
X181865183Y-60386313D01*
X186303667Y-58160656D01*
X186305126Y-60522745D01*
X186305126Y-60522745D01*
G37*
X186305126Y-60522745D02*
X186306586Y-62884834D01*
X187279409Y-63412153D01*
X187539407Y-63554876D01*
X187772154Y-63686080D01*
X187968019Y-63800056D01*
X188117374Y-63891093D01*
X188210590Y-63953481D01*
X188238437Y-63980856D01*
X188198421Y-64010614D01*
X188092997Y-64072786D01*
X187932416Y-64161778D01*
X187726928Y-64271999D01*
X187486782Y-64397856D01*
X187265183Y-64511870D01*
X186305724Y-65001500D01*
X186304695Y-66112750D01*
X186303265Y-66409308D01*
X186299760Y-66675809D01*
X186294507Y-66901231D01*
X186287832Y-67074553D01*
X186280060Y-67184754D01*
X186271917Y-67220938D01*
X186227058Y-67201221D01*
X186117945Y-67147457D01*
X185955228Y-67065068D01*
X185749555Y-66959478D01*
X185511576Y-66836110D01*
X185330000Y-66741306D01*
X184419834Y-66264737D01*
X184408147Y-66077619D01*
X184403696Y-65983662D01*
X184397403Y-65819147D01*
X184389744Y-65598154D01*
X184381193Y-65334759D01*
X184372228Y-65043041D01*
X184365791Y-64823678D01*
X184353829Y-64457419D01*
X184341100Y-64170218D01*
X184327186Y-63956465D01*
X184311667Y-63810552D01*
X184294123Y-63726869D01*
X184282003Y-63703736D01*
X184227698Y-63676343D01*
X184140047Y-63674852D01*
X184013083Y-63701432D01*
X183840837Y-63758256D01*
X183617344Y-63847493D01*
X183336636Y-63971315D01*
X182992746Y-64131891D01*
X182647370Y-64298383D01*
X181509906Y-64852419D01*
X179392988Y-63787266D01*
X178936019Y-63557034D01*
X178549478Y-63361469D01*
X178227952Y-63197600D01*
X177966026Y-63062456D01*
X177758288Y-62953069D01*
X177599323Y-62866466D01*
X177483719Y-62799678D01*
X177406062Y-62749735D01*
X177360937Y-62713665D01*
X177342933Y-62688500D01*
X177346635Y-62671267D01*
X177351384Y-62667042D01*
X177398337Y-62641260D01*
X177516215Y-62579997D01*
X177700229Y-62485673D01*
X177945593Y-62360706D01*
X178247520Y-62207515D01*
X178601222Y-62028519D01*
X179001914Y-61826137D01*
X179444807Y-61602787D01*
X179925115Y-61360888D01*
X180438052Y-61102859D01*
X180978829Y-60831119D01*
X181542660Y-60548086D01*
X181865183Y-60386313D01*
X186303667Y-58160656D01*
X186305126Y-60522745D01*
G36*
X169277383Y-64609047D02*
X169388092Y-64660691D01*
X169565581Y-64745618D01*
X169805348Y-64861598D01*
X170102888Y-65006401D01*
X170453698Y-65177795D01*
X170853275Y-65373551D01*
X171297115Y-65591438D01*
X171780715Y-65829225D01*
X172299570Y-66084682D01*
X172849178Y-66355578D01*
X173425034Y-66639684D01*
X174022636Y-66934768D01*
X174637479Y-67238600D01*
X175265060Y-67548949D01*
X175900876Y-67863585D01*
X176540423Y-68180278D01*
X177179198Y-68496797D01*
X177812696Y-68810912D01*
X178436414Y-69120391D01*
X179045850Y-69423005D01*
X179636498Y-69716523D01*
X180203856Y-69998715D01*
X180743420Y-70267350D01*
X181250687Y-70520197D01*
X181721153Y-70755026D01*
X182150314Y-70969607D01*
X182533667Y-71161709D01*
X182866708Y-71329102D01*
X183144934Y-71469555D01*
X183363841Y-71580838D01*
X183518925Y-71660719D01*
X183605684Y-71706970D01*
X183622632Y-71717252D01*
X183635884Y-71741363D01*
X183646831Y-71793998D01*
X183655611Y-71881591D01*
X183662362Y-72010573D01*
X183667222Y-72187379D01*
X183670331Y-72418441D01*
X183671825Y-72710193D01*
X183671844Y-73069066D01*
X183670526Y-73501495D01*
X183668809Y-73865259D01*
X183657834Y-75965834D01*
X183552000Y-75953925D01*
X183500508Y-75933825D01*
X183378266Y-75878408D01*
X183190301Y-75790118D01*
X182941641Y-75671403D01*
X182637314Y-75524708D01*
X182282347Y-75352481D01*
X181881767Y-75157166D01*
X181440603Y-74941211D01*
X180963882Y-74707062D01*
X180456632Y-74457165D01*
X179923880Y-74193966D01*
X179370653Y-73919912D01*
X179318667Y-73894122D01*
X178573493Y-73524507D01*
X177900286Y-73190894D01*
X177295244Y-72891507D01*
X176754564Y-72624569D01*
X176274441Y-72388303D01*
X175851073Y-72180934D01*
X175480656Y-72000685D01*
X175159388Y-71845779D01*
X174883464Y-71714442D01*
X174649081Y-71604895D01*
X174452437Y-71515364D01*
X174289728Y-71444071D01*
X174157150Y-71389240D01*
X174050900Y-71349096D01*
X173967175Y-71321861D01*
X173902172Y-71305760D01*
X173852087Y-71299015D01*
X173813118Y-71299852D01*
X173781459Y-71306493D01*
X173779501Y-71307103D01*
X173758301Y-71317890D01*
X173740915Y-71341024D01*
X173726730Y-71384867D01*
X173715133Y-71457777D01*
X173705512Y-71568114D01*
X173697254Y-71724238D01*
X173689745Y-71934510D01*
X173682373Y-72207288D01*
X173674525Y-72550932D01*
X173668885Y-72815938D01*
X173662049Y-73161493D01*
X173656554Y-73479291D01*
X173652508Y-73759642D01*
X173650017Y-73992861D01*
X173649186Y-74169261D01*
X173650122Y-74279153D01*
X173652465Y-74313129D01*
X173691556Y-74333556D01*
X173801320Y-74389319D01*
X173976707Y-74477882D01*
X174212665Y-74596709D01*
X174504143Y-74743263D01*
X174846092Y-74915009D01*
X175233458Y-75109411D01*
X175661193Y-75323932D01*
X176124244Y-75556036D01*
X176617562Y-75803188D01*
X177136094Y-76062851D01*
X177519500Y-76254773D01*
X181371834Y-78182829D01*
X182525417Y-79950270D01*
X183679000Y-81717710D01*
X183679000Y-89114479D01*
X182652417Y-89617297D01*
X182376524Y-89751774D01*
X182122151Y-89874518D01*
X181900210Y-89980364D01*
X181721613Y-90064145D01*
X181597271Y-90120694D01*
X181538448Y-90144748D01*
X181494084Y-90135472D01*
X181394177Y-90097251D01*
X181236674Y-90029106D01*
X181019524Y-89930058D01*
X180740672Y-89799128D01*
X180398068Y-89635338D01*
X179989659Y-89437708D01*
X179513391Y-89205259D01*
X178967213Y-88937013D01*
X178349073Y-88631989D01*
X177876614Y-88398127D01*
X177285816Y-88105139D01*
X176662050Y-87795381D01*
X176016974Y-87474666D01*
X175362245Y-87148804D01*
X174709521Y-86823609D01*
X174070459Y-86504891D01*
X173456716Y-86198463D01*
X172879950Y-85910136D01*
X172351819Y-85645723D01*
X171883979Y-85411035D01*
X171741000Y-85339186D01*
X169179834Y-84051500D01*
X169168862Y-81903084D01*
X169166652Y-81412742D01*
X169165547Y-81000672D01*
X169165689Y-80660484D01*
X169167221Y-80385790D01*
X169170284Y-80170198D01*
X169175022Y-80007320D01*
X169181577Y-79890767D01*
X169190091Y-79814149D01*
X169200707Y-79771076D01*
X169213567Y-79755159D01*
X169216753Y-79754667D01*
X169267443Y-79772962D01*
X169384544Y-79824919D01*
X169558836Y-79906147D01*
X169781097Y-80012255D01*
X170042106Y-80138852D01*
X170332642Y-80281545D01*
X170561225Y-80394919D01*
X171422169Y-80823104D01*
X172252993Y-81235157D01*
X173050364Y-81629463D01*
X173810952Y-82004404D01*
X174531425Y-82358363D01*
X175208453Y-82689724D01*
X175838705Y-82996871D01*
X176418848Y-83278185D01*
X176945553Y-83532051D01*
X177415488Y-83756851D01*
X177825322Y-83950969D01*
X178171724Y-84112788D01*
X178451363Y-84240691D01*
X178660908Y-84333061D01*
X178756996Y-84372905D01*
X178881710Y-84424843D01*
X178982848Y-84466862D01*
X179062797Y-84491889D01*
X179123944Y-84492852D01*
X179168677Y-84462678D01*
X179199381Y-84394295D01*
X179218445Y-84280630D01*
X179228255Y-84114611D01*
X179231198Y-83889165D01*
X179229661Y-83597220D01*
X179226031Y-83231702D01*
X179223952Y-82989328D01*
X179212834Y-81482656D01*
X171656016Y-77613992D01*
X169165238Y-73948744D01*
X169188328Y-69284622D01*
X169191639Y-68663265D01*
X169195281Y-68065688D01*
X169199198Y-67497334D01*
X169203331Y-66963644D01*
X169207623Y-66470061D01*
X169212016Y-66022026D01*
X169216453Y-65624983D01*
X169220876Y-65284373D01*
X169225228Y-65005638D01*
X169229450Y-64794220D01*
X169233487Y-64655562D01*
X169237279Y-64595106D01*
X169237959Y-64592917D01*
X169277383Y-64609047D01*
X169277383Y-64609047D01*
G37*
X169277383Y-64609047D02*
X169388092Y-64660691D01*
X169565581Y-64745618D01*
X169805348Y-64861598D01*
X170102888Y-65006401D01*
X170453698Y-65177795D01*
X170853275Y-65373551D01*
X171297115Y-65591438D01*
X171780715Y-65829225D01*
X172299570Y-66084682D01*
X172849178Y-66355578D01*
X173425034Y-66639684D01*
X174022636Y-66934768D01*
X174637479Y-67238600D01*
X175265060Y-67548949D01*
X175900876Y-67863585D01*
X176540423Y-68180278D01*
X177179198Y-68496797D01*
X177812696Y-68810912D01*
X178436414Y-69120391D01*
X179045850Y-69423005D01*
X179636498Y-69716523D01*
X180203856Y-69998715D01*
X180743420Y-70267350D01*
X181250687Y-70520197D01*
X181721153Y-70755026D01*
X182150314Y-70969607D01*
X182533667Y-71161709D01*
X182866708Y-71329102D01*
X183144934Y-71469555D01*
X183363841Y-71580838D01*
X183518925Y-71660719D01*
X183605684Y-71706970D01*
X183622632Y-71717252D01*
X183635884Y-71741363D01*
X183646831Y-71793998D01*
X183655611Y-71881591D01*
X183662362Y-72010573D01*
X183667222Y-72187379D01*
X183670331Y-72418441D01*
X183671825Y-72710193D01*
X183671844Y-73069066D01*
X183670526Y-73501495D01*
X183668809Y-73865259D01*
X183657834Y-75965834D01*
X183552000Y-75953925D01*
X183500508Y-75933825D01*
X183378266Y-75878408D01*
X183190301Y-75790118D01*
X182941641Y-75671403D01*
X182637314Y-75524708D01*
X182282347Y-75352481D01*
X181881767Y-75157166D01*
X181440603Y-74941211D01*
X180963882Y-74707062D01*
X180456632Y-74457165D01*
X179923880Y-74193966D01*
X179370653Y-73919912D01*
X179318667Y-73894122D01*
X178573493Y-73524507D01*
X177900286Y-73190894D01*
X177295244Y-72891507D01*
X176754564Y-72624569D01*
X176274441Y-72388303D01*
X175851073Y-72180934D01*
X175480656Y-72000685D01*
X175159388Y-71845779D01*
X174883464Y-71714442D01*
X174649081Y-71604895D01*
X174452437Y-71515364D01*
X174289728Y-71444071D01*
X174157150Y-71389240D01*
X174050900Y-71349096D01*
X173967175Y-71321861D01*
X173902172Y-71305760D01*
X173852087Y-71299015D01*
X173813118Y-71299852D01*
X173781459Y-71306493D01*
X173779501Y-71307103D01*
X173758301Y-71317890D01*
X173740915Y-71341024D01*
X173726730Y-71384867D01*
X173715133Y-71457777D01*
X173705512Y-71568114D01*
X173697254Y-71724238D01*
X173689745Y-71934510D01*
X173682373Y-72207288D01*
X173674525Y-72550932D01*
X173668885Y-72815938D01*
X173662049Y-73161493D01*
X173656554Y-73479291D01*
X173652508Y-73759642D01*
X173650017Y-73992861D01*
X173649186Y-74169261D01*
X173650122Y-74279153D01*
X173652465Y-74313129D01*
X173691556Y-74333556D01*
X173801320Y-74389319D01*
X173976707Y-74477882D01*
X174212665Y-74596709D01*
X174504143Y-74743263D01*
X174846092Y-74915009D01*
X175233458Y-75109411D01*
X175661193Y-75323932D01*
X176124244Y-75556036D01*
X176617562Y-75803188D01*
X177136094Y-76062851D01*
X177519500Y-76254773D01*
X181371834Y-78182829D01*
X182525417Y-79950270D01*
X183679000Y-81717710D01*
X183679000Y-89114479D01*
X182652417Y-89617297D01*
X182376524Y-89751774D01*
X182122151Y-89874518D01*
X181900210Y-89980364D01*
X181721613Y-90064145D01*
X181597271Y-90120694D01*
X181538448Y-90144748D01*
X181494084Y-90135472D01*
X181394177Y-90097251D01*
X181236674Y-90029106D01*
X181019524Y-89930058D01*
X180740672Y-89799128D01*
X180398068Y-89635338D01*
X179989659Y-89437708D01*
X179513391Y-89205259D01*
X178967213Y-88937013D01*
X178349073Y-88631989D01*
X177876614Y-88398127D01*
X177285816Y-88105139D01*
X176662050Y-87795381D01*
X176016974Y-87474666D01*
X175362245Y-87148804D01*
X174709521Y-86823609D01*
X174070459Y-86504891D01*
X173456716Y-86198463D01*
X172879950Y-85910136D01*
X172351819Y-85645723D01*
X171883979Y-85411035D01*
X171741000Y-85339186D01*
X169179834Y-84051500D01*
X169168862Y-81903084D01*
X169166652Y-81412742D01*
X169165547Y-81000672D01*
X169165689Y-80660484D01*
X169167221Y-80385790D01*
X169170284Y-80170198D01*
X169175022Y-80007320D01*
X169181577Y-79890767D01*
X169190091Y-79814149D01*
X169200707Y-79771076D01*
X169213567Y-79755159D01*
X169216753Y-79754667D01*
X169267443Y-79772962D01*
X169384544Y-79824919D01*
X169558836Y-79906147D01*
X169781097Y-80012255D01*
X170042106Y-80138852D01*
X170332642Y-80281545D01*
X170561225Y-80394919D01*
X171422169Y-80823104D01*
X172252993Y-81235157D01*
X173050364Y-81629463D01*
X173810952Y-82004404D01*
X174531425Y-82358363D01*
X175208453Y-82689724D01*
X175838705Y-82996871D01*
X176418848Y-83278185D01*
X176945553Y-83532051D01*
X177415488Y-83756851D01*
X177825322Y-83950969D01*
X178171724Y-84112788D01*
X178451363Y-84240691D01*
X178660908Y-84333061D01*
X178756996Y-84372905D01*
X178881710Y-84424843D01*
X178982848Y-84466862D01*
X179062797Y-84491889D01*
X179123944Y-84492852D01*
X179168677Y-84462678D01*
X179199381Y-84394295D01*
X179218445Y-84280630D01*
X179228255Y-84114611D01*
X179231198Y-83889165D01*
X179229661Y-83597220D01*
X179226031Y-83231702D01*
X179223952Y-82989328D01*
X179212834Y-81482656D01*
X171656016Y-77613992D01*
X169165238Y-73948744D01*
X169188328Y-69284622D01*
X169191639Y-68663265D01*
X169195281Y-68065688D01*
X169199198Y-67497334D01*
X169203331Y-66963644D01*
X169207623Y-66470061D01*
X169212016Y-66022026D01*
X169216453Y-65624983D01*
X169220876Y-65284373D01*
X169225228Y-65005638D01*
X169229450Y-64794220D01*
X169233487Y-64655562D01*
X169237279Y-64595106D01*
X169237959Y-64592917D01*
X169277383Y-64609047D01*
G36*
X204027958Y-64555330D02*
X204031636Y-64670650D01*
X204034359Y-64850624D01*
X204036176Y-65085249D01*
X204037133Y-65364521D01*
X204037280Y-65678439D01*
X204036664Y-66016998D01*
X204035332Y-66370196D01*
X204033333Y-66728030D01*
X204030715Y-67080496D01*
X204027525Y-67417591D01*
X204023811Y-67729313D01*
X204019622Y-68005658D01*
X204015004Y-68236623D01*
X204010007Y-68412206D01*
X204004678Y-68522402D01*
X204004050Y-68530378D01*
X203977834Y-68841922D01*
X199998500Y-70845405D01*
X199431059Y-71131192D01*
X198867728Y-71415094D01*
X198315271Y-71693691D01*
X197780452Y-71963566D01*
X197270034Y-72221299D01*
X196790783Y-72463471D01*
X196349462Y-72686665D01*
X195952835Y-72887460D01*
X195607666Y-73062439D01*
X195320720Y-73208183D01*
X195098759Y-73321272D01*
X195003167Y-73370194D01*
X193987167Y-73891500D01*
X193964917Y-76876000D01*
X194095822Y-76876000D01*
X194201749Y-76860425D01*
X194352062Y-76819656D01*
X194509113Y-76764431D01*
X194651876Y-76703782D01*
X194862939Y-76608126D01*
X195135204Y-76480968D01*
X195461571Y-76325816D01*
X195834939Y-76146175D01*
X196248212Y-75945551D01*
X196694287Y-75727452D01*
X197166068Y-75495382D01*
X197656453Y-75252849D01*
X198158343Y-75003358D01*
X198664640Y-74750416D01*
X199168244Y-74497528D01*
X199662056Y-74248202D01*
X200138975Y-74005943D01*
X200591903Y-73774258D01*
X201013741Y-73556652D01*
X201195674Y-73462099D01*
X201800181Y-73147093D01*
X204020167Y-74272559D01*
X204027959Y-77955530D01*
X204035752Y-81638500D01*
X202842626Y-83427957D01*
X201649500Y-85217415D01*
X195624530Y-88222207D01*
X194954878Y-88556122D01*
X194305882Y-88879628D01*
X193681578Y-89190718D01*
X193086003Y-89487384D01*
X192523195Y-89767620D01*
X191997191Y-90029417D01*
X191512027Y-90270768D01*
X191071741Y-90489667D01*
X190680370Y-90684105D01*
X190341950Y-90852075D01*
X190060520Y-90991571D01*
X189840116Y-91100584D01*
X189684774Y-91177107D01*
X189598533Y-91219133D01*
X189581446Y-91227000D01*
X189560411Y-91195589D01*
X189560379Y-91195250D01*
X189559899Y-91147842D01*
X189559656Y-91024030D01*
X189559639Y-90832077D01*
X189559839Y-90580246D01*
X189560247Y-90276798D01*
X189560853Y-89929998D01*
X189561649Y-89548106D01*
X189562625Y-89139387D01*
X189562753Y-89089167D01*
X189564618Y-88581217D01*
X189567478Y-88152931D01*
X189571464Y-87799308D01*
X189576708Y-87515350D01*
X189583342Y-87296057D01*
X189591497Y-87136430D01*
X189601304Y-87031470D01*
X189612896Y-86976177D01*
X189618624Y-86966267D01*
X189661923Y-86941493D01*
X189776280Y-86880765D01*
X189957217Y-86786375D01*
X190200257Y-86660614D01*
X190500922Y-86505775D01*
X190854735Y-86324151D01*
X191257219Y-86118033D01*
X191703896Y-85889715D01*
X192190287Y-85641488D01*
X192711917Y-85375645D01*
X193264307Y-85094478D01*
X193842980Y-84800279D01*
X194443458Y-84495341D01*
X194618110Y-84406713D01*
X199567052Y-81895725D01*
X199539360Y-80881841D01*
X199531216Y-80562372D01*
X199524019Y-80239292D01*
X199518144Y-79932747D01*
X199513963Y-79662883D01*
X199511850Y-79449845D01*
X199511667Y-79387978D01*
X199511667Y-78908000D01*
X199356574Y-78908000D01*
X199299596Y-78913387D01*
X199223403Y-78930828D01*
X199123877Y-78962242D01*
X198996897Y-79009550D01*
X198838344Y-79074671D01*
X198644099Y-79159526D01*
X198410043Y-79266035D01*
X198132057Y-79396117D01*
X197806020Y-79551692D01*
X197427813Y-79734681D01*
X196993318Y-79947004D01*
X196498415Y-80190580D01*
X195938984Y-80467329D01*
X195310907Y-80779172D01*
X194852073Y-81007483D01*
X191674624Y-82589664D01*
X190608395Y-82050582D01*
X189542167Y-81511500D01*
X189543795Y-81289250D01*
X189544093Y-81217689D01*
X189544535Y-81067200D01*
X189545110Y-80843521D01*
X189545805Y-80552391D01*
X189546607Y-80199547D01*
X189547505Y-79790729D01*
X189548486Y-79331675D01*
X189549537Y-78828122D01*
X189550646Y-78285810D01*
X189551800Y-77710476D01*
X189552988Y-77107860D01*
X189554197Y-76483699D01*
X189554378Y-76389084D01*
X189563334Y-71711168D01*
X194717417Y-69151930D01*
X195343518Y-68840960D01*
X195953107Y-68538030D01*
X196541415Y-68245519D01*
X197103671Y-67965805D01*
X197635107Y-67701266D01*
X198130951Y-67454280D01*
X198586434Y-67227226D01*
X198996786Y-67022481D01*
X199357237Y-66842424D01*
X199663018Y-66689433D01*
X199909359Y-66565885D01*
X200091489Y-66474161D01*
X200204640Y-66416636D01*
X200231334Y-66402778D01*
X200342860Y-66345012D01*
X200512028Y-66258837D01*
X200730068Y-66148623D01*
X200988207Y-66018736D01*
X201277673Y-65873544D01*
X201589697Y-65717415D01*
X201915505Y-65554716D01*
X202246328Y-65389814D01*
X202573393Y-65227077D01*
X202887929Y-65070873D01*
X203181165Y-64925569D01*
X203444329Y-64795532D01*
X203668650Y-64685131D01*
X203845356Y-64598732D01*
X203965677Y-64540703D01*
X204020840Y-64515412D01*
X204023277Y-64514667D01*
X204027958Y-64555330D01*
X204027958Y-64555330D01*
G37*
X204027958Y-64555330D02*
X204031636Y-64670650D01*
X204034359Y-64850624D01*
X204036176Y-65085249D01*
X204037133Y-65364521D01*
X204037280Y-65678439D01*
X204036664Y-66016998D01*
X204035332Y-66370196D01*
X204033333Y-66728030D01*
X204030715Y-67080496D01*
X204027525Y-67417591D01*
X204023811Y-67729313D01*
X204019622Y-68005658D01*
X204015004Y-68236623D01*
X204010007Y-68412206D01*
X204004678Y-68522402D01*
X204004050Y-68530378D01*
X203977834Y-68841922D01*
X199998500Y-70845405D01*
X199431059Y-71131192D01*
X198867728Y-71415094D01*
X198315271Y-71693691D01*
X197780452Y-71963566D01*
X197270034Y-72221299D01*
X196790783Y-72463471D01*
X196349462Y-72686665D01*
X195952835Y-72887460D01*
X195607666Y-73062439D01*
X195320720Y-73208183D01*
X195098759Y-73321272D01*
X195003167Y-73370194D01*
X193987167Y-73891500D01*
X193964917Y-76876000D01*
X194095822Y-76876000D01*
X194201749Y-76860425D01*
X194352062Y-76819656D01*
X194509113Y-76764431D01*
X194651876Y-76703782D01*
X194862939Y-76608126D01*
X195135204Y-76480968D01*
X195461571Y-76325816D01*
X195834939Y-76146175D01*
X196248212Y-75945551D01*
X196694287Y-75727452D01*
X197166068Y-75495382D01*
X197656453Y-75252849D01*
X198158343Y-75003358D01*
X198664640Y-74750416D01*
X199168244Y-74497528D01*
X199662056Y-74248202D01*
X200138975Y-74005943D01*
X200591903Y-73774258D01*
X201013741Y-73556652D01*
X201195674Y-73462099D01*
X201800181Y-73147093D01*
X204020167Y-74272559D01*
X204027959Y-77955530D01*
X204035752Y-81638500D01*
X202842626Y-83427957D01*
X201649500Y-85217415D01*
X195624530Y-88222207D01*
X194954878Y-88556122D01*
X194305882Y-88879628D01*
X193681578Y-89190718D01*
X193086003Y-89487384D01*
X192523195Y-89767620D01*
X191997191Y-90029417D01*
X191512027Y-90270768D01*
X191071741Y-90489667D01*
X190680370Y-90684105D01*
X190341950Y-90852075D01*
X190060520Y-90991571D01*
X189840116Y-91100584D01*
X189684774Y-91177107D01*
X189598533Y-91219133D01*
X189581446Y-91227000D01*
X189560411Y-91195589D01*
X189560379Y-91195250D01*
X189559899Y-91147842D01*
X189559656Y-91024030D01*
X189559639Y-90832077D01*
X189559839Y-90580246D01*
X189560247Y-90276798D01*
X189560853Y-89929998D01*
X189561649Y-89548106D01*
X189562625Y-89139387D01*
X189562753Y-89089167D01*
X189564618Y-88581217D01*
X189567478Y-88152931D01*
X189571464Y-87799308D01*
X189576708Y-87515350D01*
X189583342Y-87296057D01*
X189591497Y-87136430D01*
X189601304Y-87031470D01*
X189612896Y-86976177D01*
X189618624Y-86966267D01*
X189661923Y-86941493D01*
X189776280Y-86880765D01*
X189957217Y-86786375D01*
X190200257Y-86660614D01*
X190500922Y-86505775D01*
X190854735Y-86324151D01*
X191257219Y-86118033D01*
X191703896Y-85889715D01*
X192190287Y-85641488D01*
X192711917Y-85375645D01*
X193264307Y-85094478D01*
X193842980Y-84800279D01*
X194443458Y-84495341D01*
X194618110Y-84406713D01*
X199567052Y-81895725D01*
X199539360Y-80881841D01*
X199531216Y-80562372D01*
X199524019Y-80239292D01*
X199518144Y-79932747D01*
X199513963Y-79662883D01*
X199511850Y-79449845D01*
X199511667Y-79387978D01*
X199511667Y-78908000D01*
X199356574Y-78908000D01*
X199299596Y-78913387D01*
X199223403Y-78930828D01*
X199123877Y-78962242D01*
X198996897Y-79009550D01*
X198838344Y-79074671D01*
X198644099Y-79159526D01*
X198410043Y-79266035D01*
X198132057Y-79396117D01*
X197806020Y-79551692D01*
X197427813Y-79734681D01*
X196993318Y-79947004D01*
X196498415Y-80190580D01*
X195938984Y-80467329D01*
X195310907Y-80779172D01*
X194852073Y-81007483D01*
X191674624Y-82589664D01*
X190608395Y-82050582D01*
X189542167Y-81511500D01*
X189543795Y-81289250D01*
X189544093Y-81217689D01*
X189544535Y-81067200D01*
X189545110Y-80843521D01*
X189545805Y-80552391D01*
X189546607Y-80199547D01*
X189547505Y-79790729D01*
X189548486Y-79331675D01*
X189549537Y-78828122D01*
X189550646Y-78285810D01*
X189551800Y-77710476D01*
X189552988Y-77107860D01*
X189554197Y-76483699D01*
X189554378Y-76389084D01*
X189563334Y-71711168D01*
X194717417Y-69151930D01*
X195343518Y-68840960D01*
X195953107Y-68538030D01*
X196541415Y-68245519D01*
X197103671Y-67965805D01*
X197635107Y-67701266D01*
X198130951Y-67454280D01*
X198586434Y-67227226D01*
X198996786Y-67022481D01*
X199357237Y-66842424D01*
X199663018Y-66689433D01*
X199909359Y-66565885D01*
X200091489Y-66474161D01*
X200204640Y-66416636D01*
X200231334Y-66402778D01*
X200342860Y-66345012D01*
X200512028Y-66258837D01*
X200730068Y-66148623D01*
X200988207Y-66018736D01*
X201277673Y-65873544D01*
X201589697Y-65717415D01*
X201915505Y-65554716D01*
X202246328Y-65389814D01*
X202573393Y-65227077D01*
X202887929Y-65070873D01*
X203181165Y-64925569D01*
X203444329Y-64795532D01*
X203668650Y-64685131D01*
X203845356Y-64598732D01*
X203965677Y-64540703D01*
X204020840Y-64515412D01*
X204023277Y-64514667D01*
X204027958Y-64555330D01*
D11*
G36*
X205259013Y-91201786D02*
X205280316Y-91208248D01*
X205299937Y-91218736D01*
X205317143Y-91232857D01*
X205331264Y-91250063D01*
X205341752Y-91269684D01*
X205348214Y-91290987D01*
X205351000Y-91319274D01*
X205351000Y-91930726D01*
X205348214Y-91959013D01*
X205341752Y-91980316D01*
X205331264Y-91999937D01*
X205317143Y-92017143D01*
X205299937Y-92031264D01*
X205280316Y-92041752D01*
X205259013Y-92048214D01*
X205230726Y-92051000D01*
X204269274Y-92051000D01*
X204240987Y-92048214D01*
X204219684Y-92041752D01*
X204200063Y-92031264D01*
X204182857Y-92017143D01*
X204168736Y-91999937D01*
X204158248Y-91980316D01*
X204151786Y-91959013D01*
X204149000Y-91930726D01*
X204149000Y-91319274D01*
X204151786Y-91290987D01*
X204158248Y-91269684D01*
X204168736Y-91250063D01*
X204182857Y-91232857D01*
X204200063Y-91218736D01*
X204219684Y-91208248D01*
X204240987Y-91201786D01*
X204269274Y-91199000D01*
X205230726Y-91199000D01*
X205259013Y-91201786D01*
X205259013Y-91201786D01*
G37*
G36*
X166859013Y-91201786D02*
X166880316Y-91208248D01*
X166899937Y-91218736D01*
X166917143Y-91232857D01*
X166931264Y-91250063D01*
X166941752Y-91269684D01*
X166948214Y-91290987D01*
X166951000Y-91319274D01*
X166951000Y-91930726D01*
X166948214Y-91959013D01*
X166941752Y-91980316D01*
X166931264Y-91999937D01*
X166917143Y-92017143D01*
X166899937Y-92031264D01*
X166880316Y-92041752D01*
X166859013Y-92048214D01*
X166830726Y-92051000D01*
X165869274Y-92051000D01*
X165840987Y-92048214D01*
X165819684Y-92041752D01*
X165800063Y-92031264D01*
X165782857Y-92017143D01*
X165768736Y-91999937D01*
X165758248Y-91980316D01*
X165751786Y-91959013D01*
X165749000Y-91930726D01*
X165749000Y-91319274D01*
X165751786Y-91290987D01*
X165758248Y-91269684D01*
X165768736Y-91250063D01*
X165782857Y-91232857D01*
X165800063Y-91218736D01*
X165819684Y-91208248D01*
X165840987Y-91201786D01*
X165869274Y-91199000D01*
X166830726Y-91199000D01*
X166859013Y-91201786D01*
X166859013Y-91201786D01*
G37*
G36*
X168959013Y-91201786D02*
X168980316Y-91208248D01*
X168999937Y-91218736D01*
X169017143Y-91232857D01*
X169031264Y-91250063D01*
X169041752Y-91269684D01*
X169048214Y-91290987D01*
X169051000Y-91319274D01*
X169051000Y-91930726D01*
X169048214Y-91959013D01*
X169041752Y-91980316D01*
X169031264Y-91999937D01*
X169017143Y-92017143D01*
X168999937Y-92031264D01*
X168980316Y-92041752D01*
X168959013Y-92048214D01*
X168930726Y-92051000D01*
X167969274Y-92051000D01*
X167940987Y-92048214D01*
X167919684Y-92041752D01*
X167900063Y-92031264D01*
X167882857Y-92017143D01*
X167868736Y-91999937D01*
X167858248Y-91980316D01*
X167851786Y-91959013D01*
X167849000Y-91930726D01*
X167849000Y-91319274D01*
X167851786Y-91290987D01*
X167858248Y-91269684D01*
X167868736Y-91250063D01*
X167882857Y-91232857D01*
X167900063Y-91218736D01*
X167919684Y-91208248D01*
X167940987Y-91201786D01*
X167969274Y-91199000D01*
X168930726Y-91199000D01*
X168959013Y-91201786D01*
X168959013Y-91201786D01*
G37*
G36*
X207359013Y-91201786D02*
X207380316Y-91208248D01*
X207399937Y-91218736D01*
X207417143Y-91232857D01*
X207431264Y-91250063D01*
X207441752Y-91269684D01*
X207448214Y-91290987D01*
X207451000Y-91319274D01*
X207451000Y-91930726D01*
X207448214Y-91959013D01*
X207441752Y-91980316D01*
X207431264Y-91999937D01*
X207417143Y-92017143D01*
X207399937Y-92031264D01*
X207380316Y-92041752D01*
X207359013Y-92048214D01*
X207330726Y-92051000D01*
X206369274Y-92051000D01*
X206340987Y-92048214D01*
X206319684Y-92041752D01*
X206300063Y-92031264D01*
X206282857Y-92017143D01*
X206268736Y-91999937D01*
X206258248Y-91980316D01*
X206251786Y-91959013D01*
X206249000Y-91930726D01*
X206249000Y-91319274D01*
X206251786Y-91290987D01*
X206258248Y-91269684D01*
X206268736Y-91250063D01*
X206282857Y-91232857D01*
X206300063Y-91218736D01*
X206319684Y-91208248D01*
X206340987Y-91201786D01*
X206369274Y-91199000D01*
X207330726Y-91199000D01*
X207359013Y-91201786D01*
X207359013Y-91201786D01*
G37*
G36*
X205259013Y-89951786D02*
X205280316Y-89958248D01*
X205299937Y-89968736D01*
X205317143Y-89982857D01*
X205331264Y-90000063D01*
X205341752Y-90019684D01*
X205348214Y-90040987D01*
X205351000Y-90069274D01*
X205351000Y-90680726D01*
X205348214Y-90709013D01*
X205341752Y-90730316D01*
X205331264Y-90749937D01*
X205317143Y-90767143D01*
X205299937Y-90781264D01*
X205280316Y-90791752D01*
X205259013Y-90798214D01*
X205230726Y-90801000D01*
X204269274Y-90801000D01*
X204240987Y-90798214D01*
X204219684Y-90791752D01*
X204200063Y-90781264D01*
X204182857Y-90767143D01*
X204168736Y-90749937D01*
X204158248Y-90730316D01*
X204151786Y-90709013D01*
X204149000Y-90680726D01*
X204149000Y-90069274D01*
X204151786Y-90040987D01*
X204158248Y-90019684D01*
X204168736Y-90000063D01*
X204182857Y-89982857D01*
X204200063Y-89968736D01*
X204219684Y-89958248D01*
X204240987Y-89951786D01*
X204269274Y-89949000D01*
X205230726Y-89949000D01*
X205259013Y-89951786D01*
X205259013Y-89951786D01*
G37*
G36*
X168959013Y-89951786D02*
X168980316Y-89958248D01*
X168999937Y-89968736D01*
X169017143Y-89982857D01*
X169031264Y-90000063D01*
X169041752Y-90019684D01*
X169048214Y-90040987D01*
X169051000Y-90069274D01*
X169051000Y-90680726D01*
X169048214Y-90709013D01*
X169041752Y-90730316D01*
X169031264Y-90749937D01*
X169017143Y-90767143D01*
X168999937Y-90781264D01*
X168980316Y-90791752D01*
X168959013Y-90798214D01*
X168930726Y-90801000D01*
X167969274Y-90801000D01*
X167940987Y-90798214D01*
X167919684Y-90791752D01*
X167900063Y-90781264D01*
X167882857Y-90767143D01*
X167868736Y-90749937D01*
X167858248Y-90730316D01*
X167851786Y-90709013D01*
X167849000Y-90680726D01*
X167849000Y-90069274D01*
X167851786Y-90040987D01*
X167858248Y-90019684D01*
X167868736Y-90000063D01*
X167882857Y-89982857D01*
X167900063Y-89968736D01*
X167919684Y-89958248D01*
X167940987Y-89951786D01*
X167969274Y-89949000D01*
X168930726Y-89949000D01*
X168959013Y-89951786D01*
X168959013Y-89951786D01*
G37*
G36*
X166859013Y-89951786D02*
X166880316Y-89958248D01*
X166899937Y-89968736D01*
X166917143Y-89982857D01*
X166931264Y-90000063D01*
X166941752Y-90019684D01*
X166948214Y-90040987D01*
X166951000Y-90069274D01*
X166951000Y-90680726D01*
X166948214Y-90709013D01*
X166941752Y-90730316D01*
X166931264Y-90749937D01*
X166917143Y-90767143D01*
X166899937Y-90781264D01*
X166880316Y-90791752D01*
X166859013Y-90798214D01*
X166830726Y-90801000D01*
X165869274Y-90801000D01*
X165840987Y-90798214D01*
X165819684Y-90791752D01*
X165800063Y-90781264D01*
X165782857Y-90767143D01*
X165768736Y-90749937D01*
X165758248Y-90730316D01*
X165751786Y-90709013D01*
X165749000Y-90680726D01*
X165749000Y-90069274D01*
X165751786Y-90040987D01*
X165758248Y-90019684D01*
X165768736Y-90000063D01*
X165782857Y-89982857D01*
X165800063Y-89968736D01*
X165819684Y-89958248D01*
X165840987Y-89951786D01*
X165869274Y-89949000D01*
X166830726Y-89949000D01*
X166859013Y-89951786D01*
X166859013Y-89951786D01*
G37*
G36*
X207359013Y-89951786D02*
X207380316Y-89958248D01*
X207399937Y-89968736D01*
X207417143Y-89982857D01*
X207431264Y-90000063D01*
X207441752Y-90019684D01*
X207448214Y-90040987D01*
X207451000Y-90069274D01*
X207451000Y-90680726D01*
X207448214Y-90709013D01*
X207441752Y-90730316D01*
X207431264Y-90749937D01*
X207417143Y-90767143D01*
X207399937Y-90781264D01*
X207380316Y-90791752D01*
X207359013Y-90798214D01*
X207330726Y-90801000D01*
X206369274Y-90801000D01*
X206340987Y-90798214D01*
X206319684Y-90791752D01*
X206300063Y-90781264D01*
X206282857Y-90767143D01*
X206268736Y-90749937D01*
X206258248Y-90730316D01*
X206251786Y-90709013D01*
X206249000Y-90680726D01*
X206249000Y-90069274D01*
X206251786Y-90040987D01*
X206258248Y-90019684D01*
X206268736Y-90000063D01*
X206282857Y-89982857D01*
X206300063Y-89968736D01*
X206319684Y-89958248D01*
X206340987Y-89951786D01*
X206369274Y-89949000D01*
X207330726Y-89949000D01*
X207359013Y-89951786D01*
X207359013Y-89951786D01*
G37*
G36*
X170216136Y-69018253D02*
X170307312Y-69056019D01*
X170389372Y-69110850D01*
X170459150Y-69180628D01*
X170513981Y-69262688D01*
X170551747Y-69353864D01*
X170571000Y-69450656D01*
X170571000Y-69549344D01*
X170551747Y-69646136D01*
X170513981Y-69737312D01*
X170459150Y-69819372D01*
X170389372Y-69889150D01*
X170307312Y-69943981D01*
X170216136Y-69981747D01*
X170119344Y-70001000D01*
X170020656Y-70001000D01*
X169923864Y-69981747D01*
X169832688Y-69943981D01*
X169750628Y-69889150D01*
X169680850Y-69819372D01*
X169626019Y-69737312D01*
X169588253Y-69646136D01*
X169569000Y-69549344D01*
X169569000Y-69450656D01*
X169588253Y-69353864D01*
X169626019Y-69262688D01*
X169680850Y-69180628D01*
X169750628Y-69110850D01*
X169832688Y-69056019D01*
X169923864Y-69018253D01*
X170020656Y-68999000D01*
X170119344Y-68999000D01*
X170216136Y-69018253D01*
X170216136Y-69018253D01*
G37*
G36*
X170216136Y-66018253D02*
X170307312Y-66056019D01*
X170389372Y-66110850D01*
X170459150Y-66180628D01*
X170513981Y-66262688D01*
X170551747Y-66353864D01*
X170571000Y-66450656D01*
X170571000Y-66549344D01*
X170551747Y-66646136D01*
X170513981Y-66737312D01*
X170459150Y-66819372D01*
X170389372Y-66889150D01*
X170307312Y-66943981D01*
X170216136Y-66981747D01*
X170119344Y-67001000D01*
X170020656Y-67001000D01*
X169923864Y-66981747D01*
X169832688Y-66943981D01*
X169750628Y-66889150D01*
X169680850Y-66819372D01*
X169626019Y-66737312D01*
X169588253Y-66646136D01*
X169569000Y-66549344D01*
X169569000Y-66450656D01*
X169588253Y-66353864D01*
X169626019Y-66262688D01*
X169680850Y-66180628D01*
X169750628Y-66110850D01*
X169832688Y-66056019D01*
X169923864Y-66018253D01*
X170020656Y-65999000D01*
X170119344Y-65999000D01*
X170216136Y-66018253D01*
X170216136Y-66018253D01*
G37*
M02*
