G04 #@! TF.GenerationSoftware,KiCad,Pcbnew,5.0.2+dfsg1-1*
G04 #@! TF.CreationDate,2019-05-16T07:21:41+02:00*
G04 #@! TF.ProjectId,5thpcbway,35746870-6362-4776-9179-2e6b69636164,rev?*
G04 #@! TF.SameCoordinates,Original*
G04 #@! TF.FileFunction,Paste,Top*
G04 #@! TF.FilePolarity,Positive*
%FSLAX46Y46*%
G04 Gerber Fmt 4.6, Leading zero omitted, Abs format (unit mm)*
G04 Created by KiCad (PCBNEW 5.0.2+dfsg1-1) date jue 16 may 2019 07:21:41 CEST*
%MOMM*%
%LPD*%
G01*
G04 APERTURE LIST*
%ADD10C,0.100000*%
%ADD11C,0.750000*%
G04 APERTURE END LIST*
D10*
G04 #@! TO.C,D2*
G36*
X207253202Y-91250784D02*
X207269001Y-91253127D01*
X207284494Y-91257008D01*
X207299532Y-91262389D01*
X207313970Y-91269217D01*
X207327669Y-91277428D01*
X207340498Y-91286943D01*
X207352332Y-91297668D01*
X207363057Y-91309502D01*
X207372572Y-91322331D01*
X207380783Y-91336030D01*
X207387611Y-91350468D01*
X207392992Y-91365506D01*
X207396873Y-91380999D01*
X207399216Y-91396798D01*
X207400000Y-91412750D01*
X207400000Y-91837250D01*
X207399216Y-91853202D01*
X207396873Y-91869001D01*
X207392992Y-91884494D01*
X207387611Y-91899532D01*
X207380783Y-91913970D01*
X207372572Y-91927669D01*
X207363057Y-91940498D01*
X207352332Y-91952332D01*
X207340498Y-91963057D01*
X207327669Y-91972572D01*
X207313970Y-91980783D01*
X207299532Y-91987611D01*
X207284494Y-91992992D01*
X207269001Y-91996873D01*
X207253202Y-91999216D01*
X207237250Y-92000000D01*
X206462750Y-92000000D01*
X206446798Y-91999216D01*
X206430999Y-91996873D01*
X206415506Y-91992992D01*
X206400468Y-91987611D01*
X206386030Y-91980783D01*
X206372331Y-91972572D01*
X206359502Y-91963057D01*
X206347668Y-91952332D01*
X206336943Y-91940498D01*
X206327428Y-91927669D01*
X206319217Y-91913970D01*
X206312389Y-91899532D01*
X206307008Y-91884494D01*
X206303127Y-91869001D01*
X206300784Y-91853202D01*
X206300000Y-91837250D01*
X206300000Y-91412750D01*
X206300784Y-91396798D01*
X206303127Y-91380999D01*
X206307008Y-91365506D01*
X206312389Y-91350468D01*
X206319217Y-91336030D01*
X206327428Y-91322331D01*
X206336943Y-91309502D01*
X206347668Y-91297668D01*
X206359502Y-91286943D01*
X206372331Y-91277428D01*
X206386030Y-91269217D01*
X206400468Y-91262389D01*
X206415506Y-91257008D01*
X206430999Y-91253127D01*
X206446798Y-91250784D01*
X206462750Y-91250000D01*
X207237250Y-91250000D01*
X207253202Y-91250784D01*
X207253202Y-91250784D01*
G37*
D11*
X206850000Y-91625000D03*
D10*
G36*
X205153202Y-91250784D02*
X205169001Y-91253127D01*
X205184494Y-91257008D01*
X205199532Y-91262389D01*
X205213970Y-91269217D01*
X205227669Y-91277428D01*
X205240498Y-91286943D01*
X205252332Y-91297668D01*
X205263057Y-91309502D01*
X205272572Y-91322331D01*
X205280783Y-91336030D01*
X205287611Y-91350468D01*
X205292992Y-91365506D01*
X205296873Y-91380999D01*
X205299216Y-91396798D01*
X205300000Y-91412750D01*
X205300000Y-91837250D01*
X205299216Y-91853202D01*
X205296873Y-91869001D01*
X205292992Y-91884494D01*
X205287611Y-91899532D01*
X205280783Y-91913970D01*
X205272572Y-91927669D01*
X205263057Y-91940498D01*
X205252332Y-91952332D01*
X205240498Y-91963057D01*
X205227669Y-91972572D01*
X205213970Y-91980783D01*
X205199532Y-91987611D01*
X205184494Y-91992992D01*
X205169001Y-91996873D01*
X205153202Y-91999216D01*
X205137250Y-92000000D01*
X204362750Y-92000000D01*
X204346798Y-91999216D01*
X204330999Y-91996873D01*
X204315506Y-91992992D01*
X204300468Y-91987611D01*
X204286030Y-91980783D01*
X204272331Y-91972572D01*
X204259502Y-91963057D01*
X204247668Y-91952332D01*
X204236943Y-91940498D01*
X204227428Y-91927669D01*
X204219217Y-91913970D01*
X204212389Y-91899532D01*
X204207008Y-91884494D01*
X204203127Y-91869001D01*
X204200784Y-91853202D01*
X204200000Y-91837250D01*
X204200000Y-91412750D01*
X204200784Y-91396798D01*
X204203127Y-91380999D01*
X204207008Y-91365506D01*
X204212389Y-91350468D01*
X204219217Y-91336030D01*
X204227428Y-91322331D01*
X204236943Y-91309502D01*
X204247668Y-91297668D01*
X204259502Y-91286943D01*
X204272331Y-91277428D01*
X204286030Y-91269217D01*
X204300468Y-91262389D01*
X204315506Y-91257008D01*
X204330999Y-91253127D01*
X204346798Y-91250784D01*
X204362750Y-91250000D01*
X205137250Y-91250000D01*
X205153202Y-91250784D01*
X205153202Y-91250784D01*
G37*
D11*
X204750000Y-91625000D03*
D10*
G36*
X207253202Y-90000784D02*
X207269001Y-90003127D01*
X207284494Y-90007008D01*
X207299532Y-90012389D01*
X207313970Y-90019217D01*
X207327669Y-90027428D01*
X207340498Y-90036943D01*
X207352332Y-90047668D01*
X207363057Y-90059502D01*
X207372572Y-90072331D01*
X207380783Y-90086030D01*
X207387611Y-90100468D01*
X207392992Y-90115506D01*
X207396873Y-90130999D01*
X207399216Y-90146798D01*
X207400000Y-90162750D01*
X207400000Y-90587250D01*
X207399216Y-90603202D01*
X207396873Y-90619001D01*
X207392992Y-90634494D01*
X207387611Y-90649532D01*
X207380783Y-90663970D01*
X207372572Y-90677669D01*
X207363057Y-90690498D01*
X207352332Y-90702332D01*
X207340498Y-90713057D01*
X207327669Y-90722572D01*
X207313970Y-90730783D01*
X207299532Y-90737611D01*
X207284494Y-90742992D01*
X207269001Y-90746873D01*
X207253202Y-90749216D01*
X207237250Y-90750000D01*
X206462750Y-90750000D01*
X206446798Y-90749216D01*
X206430999Y-90746873D01*
X206415506Y-90742992D01*
X206400468Y-90737611D01*
X206386030Y-90730783D01*
X206372331Y-90722572D01*
X206359502Y-90713057D01*
X206347668Y-90702332D01*
X206336943Y-90690498D01*
X206327428Y-90677669D01*
X206319217Y-90663970D01*
X206312389Y-90649532D01*
X206307008Y-90634494D01*
X206303127Y-90619001D01*
X206300784Y-90603202D01*
X206300000Y-90587250D01*
X206300000Y-90162750D01*
X206300784Y-90146798D01*
X206303127Y-90130999D01*
X206307008Y-90115506D01*
X206312389Y-90100468D01*
X206319217Y-90086030D01*
X206327428Y-90072331D01*
X206336943Y-90059502D01*
X206347668Y-90047668D01*
X206359502Y-90036943D01*
X206372331Y-90027428D01*
X206386030Y-90019217D01*
X206400468Y-90012389D01*
X206415506Y-90007008D01*
X206430999Y-90003127D01*
X206446798Y-90000784D01*
X206462750Y-90000000D01*
X207237250Y-90000000D01*
X207253202Y-90000784D01*
X207253202Y-90000784D01*
G37*
D11*
X206850000Y-90375000D03*
D10*
G36*
X205153202Y-90000784D02*
X205169001Y-90003127D01*
X205184494Y-90007008D01*
X205199532Y-90012389D01*
X205213970Y-90019217D01*
X205227669Y-90027428D01*
X205240498Y-90036943D01*
X205252332Y-90047668D01*
X205263057Y-90059502D01*
X205272572Y-90072331D01*
X205280783Y-90086030D01*
X205287611Y-90100468D01*
X205292992Y-90115506D01*
X205296873Y-90130999D01*
X205299216Y-90146798D01*
X205300000Y-90162750D01*
X205300000Y-90587250D01*
X205299216Y-90603202D01*
X205296873Y-90619001D01*
X205292992Y-90634494D01*
X205287611Y-90649532D01*
X205280783Y-90663970D01*
X205272572Y-90677669D01*
X205263057Y-90690498D01*
X205252332Y-90702332D01*
X205240498Y-90713057D01*
X205227669Y-90722572D01*
X205213970Y-90730783D01*
X205199532Y-90737611D01*
X205184494Y-90742992D01*
X205169001Y-90746873D01*
X205153202Y-90749216D01*
X205137250Y-90750000D01*
X204362750Y-90750000D01*
X204346798Y-90749216D01*
X204330999Y-90746873D01*
X204315506Y-90742992D01*
X204300468Y-90737611D01*
X204286030Y-90730783D01*
X204272331Y-90722572D01*
X204259502Y-90713057D01*
X204247668Y-90702332D01*
X204236943Y-90690498D01*
X204227428Y-90677669D01*
X204219217Y-90663970D01*
X204212389Y-90649532D01*
X204207008Y-90634494D01*
X204203127Y-90619001D01*
X204200784Y-90603202D01*
X204200000Y-90587250D01*
X204200000Y-90162750D01*
X204200784Y-90146798D01*
X204203127Y-90130999D01*
X204207008Y-90115506D01*
X204212389Y-90100468D01*
X204219217Y-90086030D01*
X204227428Y-90072331D01*
X204236943Y-90059502D01*
X204247668Y-90047668D01*
X204259502Y-90036943D01*
X204272331Y-90027428D01*
X204286030Y-90019217D01*
X204300468Y-90012389D01*
X204315506Y-90007008D01*
X204330999Y-90003127D01*
X204346798Y-90000784D01*
X204362750Y-90000000D01*
X205137250Y-90000000D01*
X205153202Y-90000784D01*
X205153202Y-90000784D01*
G37*
D11*
X204750000Y-90375000D03*
G04 #@! TD*
D10*
G04 #@! TO.C,D1*
G36*
X168853202Y-91250784D02*
X168869001Y-91253127D01*
X168884494Y-91257008D01*
X168899532Y-91262389D01*
X168913970Y-91269217D01*
X168927669Y-91277428D01*
X168940498Y-91286943D01*
X168952332Y-91297668D01*
X168963057Y-91309502D01*
X168972572Y-91322331D01*
X168980783Y-91336030D01*
X168987611Y-91350468D01*
X168992992Y-91365506D01*
X168996873Y-91380999D01*
X168999216Y-91396798D01*
X169000000Y-91412750D01*
X169000000Y-91837250D01*
X168999216Y-91853202D01*
X168996873Y-91869001D01*
X168992992Y-91884494D01*
X168987611Y-91899532D01*
X168980783Y-91913970D01*
X168972572Y-91927669D01*
X168963057Y-91940498D01*
X168952332Y-91952332D01*
X168940498Y-91963057D01*
X168927669Y-91972572D01*
X168913970Y-91980783D01*
X168899532Y-91987611D01*
X168884494Y-91992992D01*
X168869001Y-91996873D01*
X168853202Y-91999216D01*
X168837250Y-92000000D01*
X168062750Y-92000000D01*
X168046798Y-91999216D01*
X168030999Y-91996873D01*
X168015506Y-91992992D01*
X168000468Y-91987611D01*
X167986030Y-91980783D01*
X167972331Y-91972572D01*
X167959502Y-91963057D01*
X167947668Y-91952332D01*
X167936943Y-91940498D01*
X167927428Y-91927669D01*
X167919217Y-91913970D01*
X167912389Y-91899532D01*
X167907008Y-91884494D01*
X167903127Y-91869001D01*
X167900784Y-91853202D01*
X167900000Y-91837250D01*
X167900000Y-91412750D01*
X167900784Y-91396798D01*
X167903127Y-91380999D01*
X167907008Y-91365506D01*
X167912389Y-91350468D01*
X167919217Y-91336030D01*
X167927428Y-91322331D01*
X167936943Y-91309502D01*
X167947668Y-91297668D01*
X167959502Y-91286943D01*
X167972331Y-91277428D01*
X167986030Y-91269217D01*
X168000468Y-91262389D01*
X168015506Y-91257008D01*
X168030999Y-91253127D01*
X168046798Y-91250784D01*
X168062750Y-91250000D01*
X168837250Y-91250000D01*
X168853202Y-91250784D01*
X168853202Y-91250784D01*
G37*
D11*
X168450000Y-91625000D03*
D10*
G36*
X166753202Y-91250784D02*
X166769001Y-91253127D01*
X166784494Y-91257008D01*
X166799532Y-91262389D01*
X166813970Y-91269217D01*
X166827669Y-91277428D01*
X166840498Y-91286943D01*
X166852332Y-91297668D01*
X166863057Y-91309502D01*
X166872572Y-91322331D01*
X166880783Y-91336030D01*
X166887611Y-91350468D01*
X166892992Y-91365506D01*
X166896873Y-91380999D01*
X166899216Y-91396798D01*
X166900000Y-91412750D01*
X166900000Y-91837250D01*
X166899216Y-91853202D01*
X166896873Y-91869001D01*
X166892992Y-91884494D01*
X166887611Y-91899532D01*
X166880783Y-91913970D01*
X166872572Y-91927669D01*
X166863057Y-91940498D01*
X166852332Y-91952332D01*
X166840498Y-91963057D01*
X166827669Y-91972572D01*
X166813970Y-91980783D01*
X166799532Y-91987611D01*
X166784494Y-91992992D01*
X166769001Y-91996873D01*
X166753202Y-91999216D01*
X166737250Y-92000000D01*
X165962750Y-92000000D01*
X165946798Y-91999216D01*
X165930999Y-91996873D01*
X165915506Y-91992992D01*
X165900468Y-91987611D01*
X165886030Y-91980783D01*
X165872331Y-91972572D01*
X165859502Y-91963057D01*
X165847668Y-91952332D01*
X165836943Y-91940498D01*
X165827428Y-91927669D01*
X165819217Y-91913970D01*
X165812389Y-91899532D01*
X165807008Y-91884494D01*
X165803127Y-91869001D01*
X165800784Y-91853202D01*
X165800000Y-91837250D01*
X165800000Y-91412750D01*
X165800784Y-91396798D01*
X165803127Y-91380999D01*
X165807008Y-91365506D01*
X165812389Y-91350468D01*
X165819217Y-91336030D01*
X165827428Y-91322331D01*
X165836943Y-91309502D01*
X165847668Y-91297668D01*
X165859502Y-91286943D01*
X165872331Y-91277428D01*
X165886030Y-91269217D01*
X165900468Y-91262389D01*
X165915506Y-91257008D01*
X165930999Y-91253127D01*
X165946798Y-91250784D01*
X165962750Y-91250000D01*
X166737250Y-91250000D01*
X166753202Y-91250784D01*
X166753202Y-91250784D01*
G37*
D11*
X166350000Y-91625000D03*
D10*
G36*
X168853202Y-90000784D02*
X168869001Y-90003127D01*
X168884494Y-90007008D01*
X168899532Y-90012389D01*
X168913970Y-90019217D01*
X168927669Y-90027428D01*
X168940498Y-90036943D01*
X168952332Y-90047668D01*
X168963057Y-90059502D01*
X168972572Y-90072331D01*
X168980783Y-90086030D01*
X168987611Y-90100468D01*
X168992992Y-90115506D01*
X168996873Y-90130999D01*
X168999216Y-90146798D01*
X169000000Y-90162750D01*
X169000000Y-90587250D01*
X168999216Y-90603202D01*
X168996873Y-90619001D01*
X168992992Y-90634494D01*
X168987611Y-90649532D01*
X168980783Y-90663970D01*
X168972572Y-90677669D01*
X168963057Y-90690498D01*
X168952332Y-90702332D01*
X168940498Y-90713057D01*
X168927669Y-90722572D01*
X168913970Y-90730783D01*
X168899532Y-90737611D01*
X168884494Y-90742992D01*
X168869001Y-90746873D01*
X168853202Y-90749216D01*
X168837250Y-90750000D01*
X168062750Y-90750000D01*
X168046798Y-90749216D01*
X168030999Y-90746873D01*
X168015506Y-90742992D01*
X168000468Y-90737611D01*
X167986030Y-90730783D01*
X167972331Y-90722572D01*
X167959502Y-90713057D01*
X167947668Y-90702332D01*
X167936943Y-90690498D01*
X167927428Y-90677669D01*
X167919217Y-90663970D01*
X167912389Y-90649532D01*
X167907008Y-90634494D01*
X167903127Y-90619001D01*
X167900784Y-90603202D01*
X167900000Y-90587250D01*
X167900000Y-90162750D01*
X167900784Y-90146798D01*
X167903127Y-90130999D01*
X167907008Y-90115506D01*
X167912389Y-90100468D01*
X167919217Y-90086030D01*
X167927428Y-90072331D01*
X167936943Y-90059502D01*
X167947668Y-90047668D01*
X167959502Y-90036943D01*
X167972331Y-90027428D01*
X167986030Y-90019217D01*
X168000468Y-90012389D01*
X168015506Y-90007008D01*
X168030999Y-90003127D01*
X168046798Y-90000784D01*
X168062750Y-90000000D01*
X168837250Y-90000000D01*
X168853202Y-90000784D01*
X168853202Y-90000784D01*
G37*
D11*
X168450000Y-90375000D03*
D10*
G36*
X166753202Y-90000784D02*
X166769001Y-90003127D01*
X166784494Y-90007008D01*
X166799532Y-90012389D01*
X166813970Y-90019217D01*
X166827669Y-90027428D01*
X166840498Y-90036943D01*
X166852332Y-90047668D01*
X166863057Y-90059502D01*
X166872572Y-90072331D01*
X166880783Y-90086030D01*
X166887611Y-90100468D01*
X166892992Y-90115506D01*
X166896873Y-90130999D01*
X166899216Y-90146798D01*
X166900000Y-90162750D01*
X166900000Y-90587250D01*
X166899216Y-90603202D01*
X166896873Y-90619001D01*
X166892992Y-90634494D01*
X166887611Y-90649532D01*
X166880783Y-90663970D01*
X166872572Y-90677669D01*
X166863057Y-90690498D01*
X166852332Y-90702332D01*
X166840498Y-90713057D01*
X166827669Y-90722572D01*
X166813970Y-90730783D01*
X166799532Y-90737611D01*
X166784494Y-90742992D01*
X166769001Y-90746873D01*
X166753202Y-90749216D01*
X166737250Y-90750000D01*
X165962750Y-90750000D01*
X165946798Y-90749216D01*
X165930999Y-90746873D01*
X165915506Y-90742992D01*
X165900468Y-90737611D01*
X165886030Y-90730783D01*
X165872331Y-90722572D01*
X165859502Y-90713057D01*
X165847668Y-90702332D01*
X165836943Y-90690498D01*
X165827428Y-90677669D01*
X165819217Y-90663970D01*
X165812389Y-90649532D01*
X165807008Y-90634494D01*
X165803127Y-90619001D01*
X165800784Y-90603202D01*
X165800000Y-90587250D01*
X165800000Y-90162750D01*
X165800784Y-90146798D01*
X165803127Y-90130999D01*
X165807008Y-90115506D01*
X165812389Y-90100468D01*
X165819217Y-90086030D01*
X165827428Y-90072331D01*
X165836943Y-90059502D01*
X165847668Y-90047668D01*
X165859502Y-90036943D01*
X165872331Y-90027428D01*
X165886030Y-90019217D01*
X165900468Y-90012389D01*
X165915506Y-90007008D01*
X165930999Y-90003127D01*
X165946798Y-90000784D01*
X165962750Y-90000000D01*
X166737250Y-90000000D01*
X166753202Y-90000784D01*
X166753202Y-90000784D01*
G37*
D11*
X166350000Y-90375000D03*
G04 #@! TD*
M02*
