  0
SECTION
  2
HEADER
  9
$ACADVER
  1
AC1014
  9
$HANDSEED
  5
FFFF
  9
$MEASUREMENT
 70
     1
  0
ENDSEC
  0
SECTION
  2
TABLES
  0
TABLE
  2
VPORT
  5
8
330
0
100
AcDbSymbolTable
 70
     4
  0
VPORT
  5
2E
330
8
100
AcDbSymbolTableRecord
100
AcDbViewportTableRecord
  2
*ACTIVE
 70
     0
 10
0.0
 20
0.0
 11
1.0
 21
1.0
 12
210.0
 22
148.5
 13
0.0
 23
0.0
 14
10.0
 24
10.0
 15
10.0
 25
10.0
 16
0.0
 26
0.0
 36
1.0
 17
0.0
 27
0.0
 37
0.0
 40
341.0
 41
1.24
 42
50.0
 43
0.0
 44
0.0
 50
0.0
 51
0.0
 71
     0
 72
   100
 73
     1
 74
     3
 75
     0
 76
     0
 77
     0
 78
     0
  0
ENDTAB
  0
TABLE
  2
LTYPE
  5
5
330
0
100
AcDbSymbolTable
 70
     1
  0
LTYPE
  5
14
330
5
100
AcDbSymbolTableRecord
100
AcDbLinetypeTableRecord
  2
BYBLOCK
 70
     0
  3

 72
    65
 73
     0
 40
0.0
  0
LTYPE
  5
15
330
5
100
AcDbSymbolTableRecord
100
AcDbLinetypeTableRecord
  2
BYLAYER
 70
     0
  3

 72
    65
 73
     0
 40
0.0
  0
LTYPE
  5
16
330
5
100
AcDbSymbolTableRecord
100
AcDbLinetypeTableRecord
  2
CONTINUOUS
 70
     0
  3
Solid line
 72
    65
 73
     0
 40
0.0
  0
ENDTAB
  0
TABLE
  2
LAYER
  5
2
100
AcDbSymbolTable
 70
2
  0
LAYER
  5
50
100
AcDbSymbolTableRecord
100
AcDbLayerTableRecord
  2
0
 70
0
  6
CONTINUOUS
  0
LAYER
  5
51
100
AcDbSymbolTableRecord
100
AcDbLayerTableRecord
  2
5th_logo_badge
 70
0
  6
CONTINUOUS
  0
ENDTAB
  0
TABLE
  2
STYLE
  5
3
330
0
100
AcDbSymbolTable
 70
     1
  0
STYLE
  5
11
330
3
100
AcDbSymbolTableRecord
100
AcDbTextStyleTableRecord
  2
STANDARD
 70
     0
 40
0.0
 41
1.0
 50
0.0
 71
     0
 42
2.5
  3
txt
  4

  0
ENDTAB
  0
TABLE
  2
VIEW
  5
6
330
0
100
AcDbSymbolTable
 70
     0
  0
ENDTAB
  0
TABLE
  2
UCS
  5
7
330
0
100
AcDbSymbolTable
 70
     0
  0
ENDTAB
  0
TABLE
  2
APPID
  5
9
330
0
100
AcDbSymbolTable
 70
     2
  0
APPID
  5
12
330
9
100
AcDbSymbolTableRecord
100
AcDbRegAppTableRecord
  2
ACAD
 70
     0
  0
ENDTAB
  0
TABLE
  2
DIMSTYLE
  5
A
330
0
100
AcDbSymbolTable
 70
     1
  0
DIMSTYLE
105
27
330
A
100
AcDbSymbolTableRecord
100
AcDbDimStyleTableRecord
  2
ISO-25
 70
     0
  3

  4

  5

  6

  7

 40
1.0
 41
2.5
 42
0.625
 43
3.75
 44
1.25
 45
0.0
 46
0.0
 47
0.0
 48
0.0
140
2.5
141
2.5
142
0.0
143
0.03937007874016
144
1.0
145
0.0
146
1.0
147
0.625
 71
     0
 72
     0
 73
     0
 74
     0
 75
     0
 76
     0
 77
     1
 78
     8
170
     0
171
     3
172
     1
173
     0
174
     0
175
     0
176
     0
177
     0
178
     0
270
     2
271
     2
272
     2
273
     2
274
     3
340
11
275
     0
280
     0
281
     0
282
     0
283
     0
284
     8
285
     0
286
     0
287
     3
288
     0
  0
ENDTAB
  0
TABLE
  2
BLOCK_RECORD
  5
1
330
0
100
AcDbSymbolTable
 70
     1
  0
BLOCK_RECORD
  5
1F
330
1
100
AcDbSymbolTableRecord
100
AcDbBlockTableRecord
  2
*MODEL_SPACE
  0
BLOCK_RECORD
  5
1B
330
1
100
AcDbSymbolTableRecord
100
AcDbBlockTableRecord
  2
*PAPER_SPACE
  0
ENDTAB
  0
ENDSEC
  0
SECTION
  2
BLOCKS
  0
BLOCK
  5
20
330
1F
100
AcDbEntity
  8
0
100
AcDbBlockBegin
  2
*MODEL_SPACE
 70
     0
 10
0.0
 20
0.0
 30
0.0
  3
*MODEL_SPACE
  1

  0
ENDBLK
  5
21
330
1F
100
AcDbEntity
  8
0
100
AcDbBlockEnd
  0
BLOCK
  5
1C
330
1B
100
AcDbEntity
 67
     1
  8
0
100
AcDbBlockBegin
  2
*PAPER_SPACE
  1

  0
ENDBLK
  5
1D
330
1B
100
AcDbEntity
 67
     1
  8
0
100
AcDbBlockEnd
  0
ENDSEC
  0
SECTION
  2
ENTITIES
  0
LWPOLYLINE
  5
100
100
AcDbEntity
  8
5th_logo_badge
 62
1
100
AcDbPolyline
 90
119
 70
0
 10
94.545956
 20
252.668770
 30
0.0
 10
94.293958
 20
252.664770
 30
0.0
 10
94.045723
 20
252.627070
 30
0.0
 10
93.804167
 20
252.559370
 30
0.0
 10
93.571816
 20
252.461170
 30
0.0
 10
28.873750
 20
220.228360
 30
0.0
 10
28.633703
 20
220.087530
 30
0.0
 10
28.418947
 20
219.917020
 30
0.0
 10
28.231559
 20
219.719770
 30
0.0
 10
28.073632
 20
219.499950
 30
0.0
 10
27.947252
 20
219.260500
 30
0.0
 10
27.854562
 20
219.004730
 30
0.0
 10
27.797692
 20
218.736430
 30
0.0
 10
27.778462
 20
218.458530
 30
0.0
 10
27.778462
 20
163.966750
 30
0.0
 10
27.798542
 20
163.684250
 30
0.0
 10
27.858812
 20
163.409260
 30
0.0
 10
27.957772
 20
163.145560
 30
0.0
 10
28.093755
 20
162.897080
 30
0.0
 10
36.418591
 20
149.984842
 30
0.0
 10
28.838698
 20
146.002294
 30
0.0
 10
28.606507
 20
145.860035
 30
0.0
 10
28.398887
 20
145.689743
 30
0.0
 10
28.217771
 20
145.494621
 30
0.0
 10
28.065108
 20
145.277809
 30
0.0
 10
27.942915
 20
145.042532
 30
0.0
 10
27.853105
 20
144.791949
 30
0.0
 10
27.797675
 20
144.529304
 30
0.0
 10
27.778435
 20
144.257706
 30
0.0
 10
27.778435
 20
121.301550
 30
0.0
 10
27.798945
 20
121.025565
 30
0.0
 10
27.856835
 20
120.758981
 30
0.0
 10
27.950075
 20
120.505186
 30
0.0
 10
28.076575
 20
120.267486
 30
0.0
 10
28.234205
 20
120.049213
 30
0.0
 10
28.420975
 20
119.853671
 30
0.0
 10
28.634730
 20
119.684251
 30
0.0
 10
28.873439
 20
119.544259
 30
0.0
 10
30.220058
 20
118.869352
 30
0.0
 10
5.181901
 20
99.679284
 30
0.0
 10
5.010560
 20
99.500668
 30
0.0
 10
4.899480
 20
99.284861
 30
0.0
 10
4.854008
 20
99.046619
 30
0.0
 10
4.879503
 20
98.800638
 30
0.0
 10
7.840151
 20
86.684272
 30
0.0
 10
7.903049
 20
86.516488
 30
0.0
 10
7.998624
 20
86.367334
 30
0.0
 10
8.123201
 20
86.241335
 30
0.0
 10
8.273104
 20
86.143215
 30
0.0
 10
31.194233
 20
74.329277
 30
0.0
 10
44.081002
 20
44.837424
 30
0.0
 10
44.211136
 20
44.629640
 30
0.0
 10
44.391423
 20
44.470376
 30
0.0
 10
44.609069
 20
44.368031
 30
0.0
 10
44.851413
 20
44.331254
 30
0.0
 10
165.808140
 20
44.331254
 30
0.0
 10
166.053860
 20
44.365520
 30
0.0
 10
166.275350
 20
44.467071
 30
0.0
 10
166.458810
 20
44.627297
 30
0.0
 10
166.590870
 20
44.837461
 30
0.0
 10
179.477680
 20
74.329318
 30
0.0
 10
202.074070
 20
86.311972
 30
0.0
 10
202.227030
 20
86.415154
 30
0.0
 10
202.352810
 20
86.547502
 30
0.0
 10
202.447310
 20
86.703802
 30
0.0
 10
202.506710
 20
86.878611
 30
0.0
 10
205.129900
 20
98.826253
 30
0.0
 10
205.146500
 20
99.067055
 30
0.0
 10
205.096400
 20
99.298448
 30
0.0
 10
204.983990
 20
99.507068
 30
0.0
 10
204.814310
 20
99.679412
 30
0.0
 10
175.873240
 20
121.861969
 30
0.0
 10
181.886820
 20
130.877612
 30
0.0
 10
182.031000
 20
131.130314
 30
0.0
 10
182.135480
 20
131.400119
 30
0.0
 10
182.199380
 20
131.682451
 30
0.0
 10
182.220280
 20
131.972734
 30
0.0
 10
182.220280
 20
165.361090
 30
0.0
 10
182.199380
 20
165.632730
 30
0.0
 10
182.144180
 20
165.895170
 30
0.0
 10
182.054780
 20
166.145920
 30
0.0
 10
181.933170
 20
166.381190
 30
0.0
 10
181.781060
 20
166.598100
 30
0.0
 10
181.600510
 20
166.793260
 30
0.0
 10
181.393230
 20
166.963760
 30
0.0
 10
181.161310
 20
167.105850
 30
0.0
 10
176.035850
 20
169.815010
 30
0.0
 10
181.196280
 20
172.676950
 30
0.0
 10
181.420690
 20
172.820710
 30
0.0
 10
181.620870
 20
172.990810
 30
0.0
 10
181.795130
 20
173.184290
 30
0.0
 10
181.942240
 20
173.398680
 30
0.0
 10
182.059670
 20
173.630200
 30
0.0
 10
182.146170
 20
173.876350
 30
0.0
 10
182.199670
 20
174.133770
 30
0.0
 10
182.216270
 20
174.399560
 30
0.0
 10
182.216270
 20
218.459070
 30
0.0
 10
182.195370
 20
218.736970
 30
0.0
 10
182.138470
 20
219.005270
 30
0.0
 10
182.045670
 20
219.261040
 30
0.0
 10
181.919460
 20
219.500490
 30
0.0
 10
181.761490
 20
219.720310
 30
0.0
 10
181.574270
 20
219.917570
 30
0.0
 10
181.359460
 20
220.088070
 30
0.0
 10
181.119590
 20
220.228900
 30
0.0
 10
116.424660
 20
252.461710
 30
0.0
 10
116.214460
 20
252.550710
 30
0.0
 10
115.997570
 20
252.614210
 30
0.0
 10
115.776070
 20
252.651910
 30
0.0
 10
115.552500
 20
252.664510
 30
0.0
 10
115.328920
 20
252.651910
 30
0.0
 10
115.107430
 20
252.614210
 30
0.0
 10
114.890540
 20
252.550710
 30
0.0
 10
114.680320
 20
252.461710
 30
0.0
 10
105.101210
 20
247.782000
 30
0.0
 10
95.296084
 20
252.474460
 30
0.0
 10
94.926656
 20
252.609440
 30
0.0
 10
94.538005
 20
252.668340
 30
0.0
 10
94.538005
 20
252.668340
 30
0.0
  0
ENDSEC
  0
SECTION
  2
OBJECTS
  0
DICTIONARY
  5
C
330
0
100
AcDbDictionary
  3
ACAD_GROUP
350
D
  3
ACAD_MLINESTYLE
350
17
  0
DICTIONARY
  5
D
330
C
100
AcDbDictionary
  0
DICTIONARY
  5
1A
330
C
100
AcDbDictionary
  0
DICTIONARY
  5
17
330
C
100
AcDbDictionary
  3
STANDARD
350
18
  0
DICTIONARY
  5
19
330
C
100
AcDbDictionary
  0
ENDSEC
  0
EOF
