<?xml version="1.0" encoding="UTF-8" standalone="no"?>
<!-- Created with Inkscape (http://www.inkscape.org/) -->

<svg
   xmlns:dc="http://purl.org/dc/elements/1.1/"
   xmlns:cc="http://creativecommons.org/ns#"
   xmlns:rdf="http://www.w3.org/1999/02/22-rdf-syntax-ns#"
   xmlns:svg="http://www.w3.org/2000/svg"
   xmlns="http://www.w3.org/2000/svg"
   xmlns:sodipodi="http://sodipodi.sourceforge.net/DTD/sodipodi-0.dtd"
   xmlns:inkscape="http://www.inkscape.org/namespaces/inkscape"
   width="210mm"
   height="297mm"
   viewBox="0 0 210 297"
   version="1.1"
   id="svg8"
   inkscape:version="0.92.4 (5da689c313, 2019-01-14)"
   sodipodi:docname="5thlogo_5 only.svg">
  <defs
     id="defs2" />
  <sodipodi:namedview
     id="base"
     pagecolor="#ffffff"
     bordercolor="#666666"
     borderopacity="1.0"
     inkscape:pageopacity="0.0"
     inkscape:pageshadow="2"
     inkscape:zoom="0.35355339"
     inkscape:cx="-269.47144"
     inkscape:cy="571.80413"
     inkscape:document-units="mm"
     inkscape:current-layer="g837"
     showgrid="false"
     inkscape:window-width="1860"
     inkscape:window-height="1016"
     inkscape:window-x="60"
     inkscape:window-y="27"
     inkscape:window-maximized="1"
     borderlayer="true"
     objecttolerance="5">
    <inkscape:grid
       id="grid816"
       units="mm"
       type="xygrid"
       empspacing="1"
       spacingy="2.54"
       spacingx="2.54" />
    <inkscape:grid
       id="grid898"
       units="mm"
       type="xygrid"
       empspacing="1"
       spacingy="2.54"
       spacingx="2.54" />
  </sodipodi:namedview>
  <metadata
     id="metadata5">
    <rdf:RDF>
      <cc:Work
         rdf:about="">
        <dc:format>image/svg+xml</dc:format>
        <dc:type
           rdf:resource="http://purl.org/dc/dcmitype/StillImage" />
        <dc:title></dc:title>
      </cc:Work>
    </rdf:RDF>
  </metadata>
  <g
     id="g837"
     inkscape:groupmode="layer"
     inkscape:label="5th logo badge"
     style="display:inline"
     transform="translate(0,245)">
    <path
       style="opacity:1;fill:#aa0000;fill-opacity:1;stroke:#3d0000;stroke-width:5.18734217;stroke-linecap:round;stroke-linejoin:round;stroke-miterlimit:4;stroke-dasharray:none;stroke-dashoffset:0;stroke-opacity:1;paint-order:fill markers stroke"
       d=""
       id="path5434"
       inkscape:connector-curvature="0"
       transform="scale(0.26458333)" />
    <path
       style="display:inline;opacity:1;fill:#d4aa00;fill-opacity:1;fill-rule:nonzero;stroke:none;stroke-width:0.0042621;stroke-linecap:round;stroke-linejoin:round;stroke-miterlimit:4;stroke-dasharray:none;stroke-dashoffset:0;stroke-opacity:1;paint-order:fill markers stroke"
       d="m 5.3006205,-143.91948 c -0.5597,6.33888 -0.121101,12.82193 -0.298461,19.21598 0.03125,11.73908 -0.232937,23.52145 -0.01704,35.233421 4.346244,7.058501 9.2882185,13.833096 13.8625385,20.782901 8.740316,5.04132 17.969131,9.351049 26.927038,14.054239 5.413078,2.760803 10.828131,5.518173 16.241997,8.277648 -0.0534,4.875882 0.105625,10.016887 -0.07928,14.728862 -10.132287,-4.114734 -19.74654,-9.423833 -29.611659,-14.135174 -8.451528,-4.126967 -16.817092,-8.438838 -25.3422125,-12.410097 -2.974616,-0.446778 -1.942921,3.336614 -2.102653,5.1377 0.0924,6.877385 -0.182759,13.823074 0.135023,20.658609 1.314011,2.089508 4.388042,2.465677 6.4111485,3.852919 21.337556,10.673445 42.675331,21.346456 64.013164,32.019334 2.807478,0.04887 5.119409,-2.345275 7.715318,-3.324233 2.045012,-1.470123 5.244252,-1.861248 6.462642,-4.144994 0.0512,-14.014857 0.27618,-28.082304 0.0989,-42.075002 -4.25687,-7.048044 -9.08606,-13.828603 -13.561873,-20.774292 -6.56618,-3.833699 -13.624492,-6.943454 -20.378562,-10.500751 -7.69324,-3.880337 -15.386479,-7.760661 -23.079719,-11.640986 0.01647,-4.916133 -0.03293,-9.916378 0.02505,-14.780234 11.521739,4.778791 22.509037,10.775394 33.757599,16.161042 7.027978,3.46347 14.041194,6.958298 21.094225,10.370261 2.93756,0.491275 2.0632,-3.114742 2.21794,-4.871931 -0.017,-6.919318 0.20685,-13.903081 -0.0937,-20.780472 -1.31597,-2.08944 -4.39593,-2.45559 -6.422991,-3.83805 C 57.930644,-119.29 32.586065,-131.87683 7.2414085,-144.4635 c -0.817079,-0.21026 -1.344124,-0.0586 -1.940404,0.54385 z"
       id="path6100"
       inkscape:connector-curvature="0"
       inkscape:export-xdpi="100"
       inkscape:export-ydpi="100" />
    <path
       style="display:inline;opacity:1;fill:#d4aa00;fill-opacity:1;fill-rule:nonzero;stroke:none;stroke-width:0.0042621;stroke-linecap:round;stroke-linejoin:round;stroke-miterlimit:4;stroke-dasharray:none;stroke-dashoffset:0;stroke-opacity:1;paint-order:fill markers stroke"
       d="m 202.87013,-144.57948 c -27.25397,13.57928 -54.50794,27.15844 -81.76202,40.73743 -1.72899,1.92641 -0.41882,4.96591 -0.81218,7.36513 0.058,16.42824 0.1148,32.856456 0.17219,49.284684 0.95607,2.392963 4.22175,2.627585 6.17533,4.069792 2.67466,1.004133 5.10099,3.390555 7.975,3.384933 13.69902,-6.733651 27.16447,-13.964469 41.05244,-20.301919 2.19004,-1.506546 1.49413,1.243636 1.55715,2.591616 0,3.933184 0,7.866345 0,11.799529 -18.64584,9.476458 -37.29173,18.952846 -55.93768,28.429151 -1.70512,1.929188 -0.45804,4.95002 -0.87242,7.3422064 0.0568,6.0454156 -0.33699,12.1328486 0.19264,18.1554116 1.31359,2.311672 3.88391,-0.177019 5.57267,-0.769315 21.61101,-10.810959 43.29788,-21.54274 64.78245,-32.560926 4.81799,-6.83657 9.5883,-13.824156 14.11772,-20.847923 0.34778,-12.305307 0.0512,-24.70764 0.14888,-37.050163 -0.28584,-2.422733 1.11372,-6.205242 -2.15803,-7.012993 -3.74207,-1.830255 -7.36537,-3.950286 -11.23388,-5.499412 -3.10309,0.530208 -5.78992,2.656426 -8.71781,3.81435 -11.59752,5.50814 -22.89532,11.73999 -34.68173,16.717358 -0.84878,-1.012908 -0.0819,-4.1414 -0.34438,-5.921055 0,-2.920759 0,-5.841518 0,-8.762253 18.70477,-9.53387 37.4837,-18.925262 56.11162,-28.607562 1.63262,-1.74184 0.56601,-4.53334 0.94192,-6.69707 -0.0512,-6.21817 0.1068,-12.50375 -0.24378,-18.67748 -0.13867,-0.91414 -1.24403,-1.30784 -2.03604,-0.98352 z"
       id="path6102"
       inkscape:connector-curvature="0"
       inkscape:export-xdpi="100"
       inkscape:export-ydpi="100" />
    <path
       style="display:inline;opacity:1;fill:#d4aa00;fill-opacity:1;fill-rule:nonzero;stroke:none;stroke-width:0.00037671;stroke-linecap:round;stroke-linejoin:round;stroke-miterlimit:4;stroke-dasharray:none;stroke-dashoffset:0;stroke-opacity:1;paint-order:fill markers stroke"
       d="m 106.83202,-138.13247 c -0.71684,0.11934 -1.26921,0.79839 -1.24955,1.52311 -0.017,2.71024 -0.017,5.42151 -0.006,8.13123 0.0118,0.78559 0.73315,1.46026 1.51675,1.43418 0.60294,-0.0171 1.09701,-0.41599 1.63322,-0.64574 2.20477,-1.10724 4.41822,-2.19907 6.61751,-3.31609 0.55181,-0.29039 0.83134,-0.93492 0.77497,-1.54186 0.0341,-0.50179 -0.0608,-1.04171 -0.43701,-1.40421 -0.41655,-0.38303 -0.97795,-0.54839 -1.46389,-0.82447 -2.17731,-1.08285 -4.34564,-2.18566 -6.5309,-3.25135 -0.2705,-0.11597 -0.56373,-0.14491 -0.85395,-0.10456 z"
       id="path6104"
       inkscape:connector-curvature="0"
       inkscape:export-xdpi="100"
       inkscape:export-ydpi="100" />
    <path
       style="display:inline;opacity:1;fill:#d4aa00;fill-opacity:1;fill-rule:nonzero;stroke:none;stroke-width:0.00213105;stroke-linecap:round;stroke-linejoin:round;stroke-miterlimit:4;stroke-dasharray:none;stroke-dashoffset:0;stroke-opacity:1;paint-order:fill markers stroke"
       d="m 102.57093,-181.14324 c -17.150565,8.61228 -34.368041,17.09574 -51.454814,25.83242 -1.178874,0.83388 -0.571399,2.57135 0.698408,2.90988 7.907725,4.02887 15.84302,8.04968 23.818049,11.91603 1.526871,0.30743 2.793513,-1.05263 4.187167,-1.51004 3.490993,-1.60363 6.845215,-3.55248 10.448385,-4.88693 0.91988,-0.26367 0.37052,1.15816 0.55692,1.65263 0.11198,3.83582 0.002,7.69411 0.16253,11.51682 0.40347,1.58459 2.42098,1.75758 3.60192,2.60856 2.75907,1.3391 5.423445,2.95353 8.241375,4.12151 1.44558,0.38701 2.08314,-1.34147 1.83906,-2.51213 0.0512,-3.51169 0.10516,-7.02337 0.15742,-10.53507 3.54544,-1.87196 7.17186,-3.6313 10.66343,-5.57919 1.22748,-0.80889 0.491,-2.57647 -0.77565,-2.88516 -3.32267,-1.79025 -6.64541,-3.5805 -9.9682,-5.37065 -0.0341,-8.702 0.071,-17.42476 -0.0512,-26.11393 -0.0859,-1.00256 -1.24254,-1.56357 -2.1227,-1.16475 z"
       id="path6106"
       inkscape:connector-curvature="0"
       inkscape:export-xdpi="100"
       inkscape:export-ydpi="100" />
    <path
       style="display:inline;opacity:1;fill:#d4aa00;fill-opacity:1;fill-rule:nonzero;stroke:none;stroke-width:0.00213105;stroke-linecap:round;stroke-linejoin:round;stroke-miterlimit:4;stroke-dasharray:none;stroke-dashoffset:0;stroke-opacity:1;paint-order:fill markers stroke"
       d="m 106.24254,-180.68919 c -0.92358,1.34148 -0.31483,3.11383 -0.5143,4.64035 0.0118,6.96592 -0.0397,13.95258 0.10622,20.90515 0.40064,1.59271 2.43151,1.75485 3.61966,2.59976 7.95087,3.98939 15.8557,8.11532 23.83537,12.01929 1.5347,0.31824 2.79895,-1.07126 4.19333,-1.5406 7.12998,-3.61494 14.36447,-7.04429 21.40206,-10.82982 1.09717,-0.98672 0.25458,-2.57131 -0.99529,-2.8938 -16.64936,-8.46692 -33.30962,-16.91628 -50.04177,-25.21748 -0.623,-0.14605 -1.08194,-0.0512 -1.60562,0.3171 z"
       id="path6108"
       inkscape:connector-curvature="0"
       inkscape:export-xdpi="100"
       inkscape:export-ydpi="100" />
    <path
       inkscape:connector-curvature="0"
       id="path5461"
       style="font-style:normal;font-variant:normal;font-weight:normal;font-stretch:normal;font-size:37.64021301px;line-height:125%;font-family:'3D LET BRK';-inkscape-font-specification:'3D LET BRK, Normal';font-variant-ligatures:normal;font-variant-caps:normal;font-variant-numeric:normal;font-feature-settings:normal;text-align:start;letter-spacing:0px;word-spacing:0px;writing-mode:lr-tb;text-anchor:start;fill:#000000;fill-opacity:1;stroke:none;stroke-width:7.88325405px;stroke-linecap:butt;stroke-linejoin:miter;stroke-opacity:1"
       d="M 76.148582,6.450896 2.6798265,-30.441145 V -61.657483 L 15.29249,-68.279121 v -0.315335 q 0,-0.315346 -0.31534,-0.630633 0,-0.630634 -0.315338,-0.630634 L 2.6797755,-88.459453 v -74.099387 l 87.9733095,-43.82899 14.504545,6.93699 14.18927,-6.93699 87.97332,43.82899 v 59.91018 l -11.35139,6.306313 11.35139,5.991039 v 45.405584 L 192.81568,-23.188883 119.3469,13.387833 90.653075,-0.486092 Z m 41.306458,1.891906 v -24.279379 l -10.72077,-5.360382 V -8.6843044 L 95.067594,-2.693287 Z m 4.09911,0 68.73904,-34.36951 13.5586,-20.18025 V -88.14406 l -12.29736,-6.306315 -42.56775,21.126183 h -0.63062 q -0.31539,0 -0.94595,0 -0.63063,0 -0.63063,-0.630622 v -16.396435 l 57.07231,-29.009161 v -24.27936 l -82.29764,40.99116 v 55.495696 l 12.29736,6.306327 42.25241,-21.126207 h 0.94596 q 0.31539,0 0.94595,0 0.63063,0 0.63063,0.630634 v 16.39647 l -57.07231,29.009113 z M 76.148582,2.351779 88.445935,-3.95455 V -45.891646 L 75.202637,-66.071908 31.373633,-88.14406 v -16.39646 q 0,-0.63062 0.630622,-0.63062 0.630634,0 0.945957,0 h 0.945945 l 54.549778,27.117199 V -102.64861 L 6.1483125,-143.63977 v 53.919131 l 13.8739205,20.495561 43.198372,22.072164 v 16.396458 q 0,0.630634 -0.630634,0.630634 -0.630621,0 -0.945944,0 H 61.013393 L 6.1483135,-57.243045 v 24.594687 z m 16.396473,-8.19823 10.720775,-5.360377 v -14.189246 l 14.18921,-7.252284 V -44.94569 l -12.29735,-5.991028 -12.612635,5.991028 z m 26.801905,-13.558606 52.97318,-26.486589 v -0.315335 l -9.77481,-4.72976 -28.69382,13.873934 -12.61269,-5.675693 v 11.98202 l -11.98201,6.306328 z M 59.752124,-34.855571 V -44.94569 l -41.306468,-20.495584 -9.4594955,4.729748 v 0.630634 z m 42.252396,-18.918993 v -0.315335 -0.315335 q -0.63061,0 -0.63061,-1.261268 -1.2613,-1.57659 -3.153156,-4.099114 -1.57658,-2.837847 -3.4685,-5.045071 -1.57658,-2.522536 -3.78378,-6.306328 l -1.26129,-1.261268 -10.72078,5.360395 12.29736,18.603659 z m 15.45052,4.729748 v -53.603794 l -10.72077,-5.36041 v 27.117233 l -12.297355,6.306339 q -0.31539,0 -0.63062,0.315334 0,0.315335 0,0.945945 0.31539,0.315335 0.63062,0.630634 l 11.982065,17.973037 z m 57.70292,0 v -8.198229 l -8.19824,4.099114 z M 76.148582,-69.8557 l 9.459483,-4.729748 v -0.630634 l -38.153296,-19.234293 -9.459486,5.045024 v 0.315393 z M 92.545055,-78.053941 102.95049,-83.099 v -24.59469 l -10.405435,5.04508 z m 57.702925,0 36.89199,-18.288348 -10.09009,-5.045071 -26.8019,13.2433 z m -115.405866,-14.504568 8.198229,-3.78378 -8.198229,-4.099111 z m 156.712316,-5.990981 12.29736,-6.30638 v -10.09009 l -21.75683,11.03605 v 0.63062 z m -100.901295,-7.25233 12.297355,-6.30632 v -11.982 l -55.180387,-27.74787 h -29.63977 l -9.1441725,4.72973 v 0.3154 z m 28.693825,0 81.66695,-40.99111 v -0.3154 l -9.14414,-4.72974 h -29.32444 l -55.49572,27.74787 v 11.982 z m -16.08113,-22.38745 v -12.61263 l 11.66667,-5.99103 -11.66667,-6.30633 v -26.8019 l -51.711935,25.85595 24.594687,12.29735 13.558603,-6.62165 q 0.94595,0 1.57658,0 0.94595,0 0.94595,0.63061 v 13.87394 z m 3.78378,-0.31539 7.56761,-3.78378 v -0.63063 l -7.56761,-3.78376 z m 12.29735,-6.30632 10.0901,-5.04507 -10.0901,-5.04502 -10.09015,5.04502 z m -30.901025,-0.94596 v -7.88289 l -7.882892,3.78378 z m 45.405575,-5.99098 24.59471,-12.29735 -51.39661,-25.85595 v 24.59466 z m -127.7031975,-8.51357 8.1982285,-3.78378 -8.1982285,-4.09912 z m 197.7034775,0 v -7.8829 l -7.88291,4.09912 z m -184.460189,-5.6757 h 27.117234 l 56.441655,-28.06314 v -12.29734 l -12.297355,-5.99104 -81.6669745,40.67583 v 0.63062 z m 144.099689,0 h 27.11719 l 10.40543,-5.04507 v -0.63062 l -81.66695,-40.67583 -12.29735,5.99104 v 12.29734 z"
       inkscape:export-xdpi="100"
       inkscape:export-ydpi="100" />
  </g>
</svg>
