  0
SECTION
  2
HEADER
  9
$ACADVER
  1
AC1014
  9
$HANDSEED
  5
FFFF
  9
$MEASUREMENT
 70
     1
  0
ENDSEC
  0
SECTION
  2
TABLES
  0
TABLE
  2
VPORT
  5
8
330
0
100
AcDbSymbolTable
 70
     4
  0
VPORT
  5
2E
330
8
100
AcDbSymbolTableRecord
100
AcDbViewportTableRecord
  2
*ACTIVE
 70
     0
 10
0.0
 20
0.0
 11
1.0
 21
1.0
 12
210.0
 22
148.5
 13
0.0
 23
0.0
 14
10.0
 24
10.0
 15
10.0
 25
10.0
 16
0.0
 26
0.0
 36
1.0
 17
0.0
 27
0.0
 37
0.0
 40
341.0
 41
1.24
 42
50.0
 43
0.0
 44
0.0
 50
0.0
 51
0.0
 71
     0
 72
   100
 73
     1
 74
     3
 75
     0
 76
     0
 77
     0
 78
     0
  0
ENDTAB
  0
TABLE
  2
LTYPE
  5
5
330
0
100
AcDbSymbolTable
 70
     1
  0
LTYPE
  5
14
330
5
100
AcDbSymbolTableRecord
100
AcDbLinetypeTableRecord
  2
BYBLOCK
 70
     0
  3

 72
    65
 73
     0
 40
0.0
  0
LTYPE
  5
15
330
5
100
AcDbSymbolTableRecord
100
AcDbLinetypeTableRecord
  2
BYLAYER
 70
     0
  3

 72
    65
 73
     0
 40
0.0
  0
LTYPE
  5
16
330
5
100
AcDbSymbolTableRecord
100
AcDbLinetypeTableRecord
  2
CONTINUOUS
 70
     0
  3
Solid line
 72
    65
 73
     0
 40
0.0
  0
ENDTAB
  0
TABLE
  2
LAYER
  5
2
100
AcDbSymbolTable
 70
2
  0
LAYER
  5
50
100
AcDbSymbolTableRecord
100
AcDbLayerTableRecord
  2
0
 70
0
  6
CONTINUOUS
  0
LAYER
  5
51
100
AcDbSymbolTableRecord
100
AcDbLayerTableRecord
  2
Edge.Cuts-disabled
 70
0
  6
CONTINUOUS
  0
ENDTAB
  0
TABLE
  2
STYLE
  5
3
330
0
100
AcDbSymbolTable
 70
     1
  0
STYLE
  5
11
330
3
100
AcDbSymbolTableRecord
100
AcDbTextStyleTableRecord
  2
STANDARD
 70
     0
 40
0.0
 41
1.0
 50
0.0
 71
     0
 42
2.5
  3
txt
  4

  0
ENDTAB
  0
TABLE
  2
VIEW
  5
6
330
0
100
AcDbSymbolTable
 70
     0
  0
ENDTAB
  0
TABLE
  2
UCS
  5
7
330
0
100
AcDbSymbolTable
 70
     0
  0
ENDTAB
  0
TABLE
  2
APPID
  5
9
330
0
100
AcDbSymbolTable
 70
     2
  0
APPID
  5
12
330
9
100
AcDbSymbolTableRecord
100
AcDbRegAppTableRecord
  2
ACAD
 70
     0
  0
ENDTAB
  0
TABLE
  2
DIMSTYLE
  5
A
330
0
100
AcDbSymbolTable
 70
     1
  0
DIMSTYLE
105
27
330
A
100
AcDbSymbolTableRecord
100
AcDbDimStyleTableRecord
  2
ISO-25
 70
     0
  3

  4

  5

  6

  7

 40
1.0
 41
2.5
 42
0.625
 43
3.75
 44
1.25
 45
0.0
 46
0.0
 47
0.0
 48
0.0
140
2.5
141
2.5
142
0.0
143
0.03937007874016
144
1.0
145
0.0
146
1.0
147
0.625
 71
     0
 72
     0
 73
     0
 74
     0
 75
     0
 76
     0
 77
     1
 78
     8
170
     0
171
     3
172
     1
173
     0
174
     0
175
     0
176
     0
177
     0
178
     0
270
     2
271
     2
272
     2
273
     2
274
     3
340
11
275
     0
280
     0
281
     0
282
     0
283
     0
284
     8
285
     0
286
     0
287
     3
288
     0
  0
ENDTAB
  0
TABLE
  2
BLOCK_RECORD
  5
1
330
0
100
AcDbSymbolTable
 70
     1
  0
BLOCK_RECORD
  5
1F
330
1
100
AcDbSymbolTableRecord
100
AcDbBlockTableRecord
  2
*MODEL_SPACE
  0
BLOCK_RECORD
  5
1B
330
1
100
AcDbSymbolTableRecord
100
AcDbBlockTableRecord
  2
*PAPER_SPACE
  0
ENDTAB
  0
ENDSEC
  0
SECTION
  2
BLOCKS
  0
BLOCK
  5
20
330
1F
100
AcDbEntity
  8
0
100
AcDbBlockBegin
  2
*MODEL_SPACE
 70
     0
 10
0.0
 20
0.0
 30
0.0
  3
*MODEL_SPACE
  1

  0
ENDBLK
  5
21
330
1F
100
AcDbEntity
  8
0
100
AcDbBlockEnd
  0
BLOCK
  5
1C
330
1B
100
AcDbEntity
 67
     1
  8
0
100
AcDbBlockBegin
  2
*PAPER_SPACE
  1

  0
ENDBLK
  5
1D
330
1B
100
AcDbEntity
 67
     1
  8
0
100
AcDbBlockEnd
  0
ENDSEC
  0
SECTION
  2
ENTITIES
  0
LWPOLYLINE
  5
100
100
AcDbEntity
  8
Edge.Cuts-disabled
 62
1
100
AcDbPolyline
 90
118
 70
1
 10
23.498254
 20
51.390069
 30
0.0
 10
23.437970
 20
51.389055
 30
0.0
 10
23.378557
 20
51.380291
 30
0.0
 10
23.320718
 20
51.364039
 30
0.0
 10
23.265152
 20
51.340555
 30
0.0
 10
7.783666
 20
43.627617
 30
0.0
 10
7.726232
 20
43.593895
 30
0.0
 10
7.674845
 20
43.553048
 30
0.0
 10
7.630007
 20
43.505895
 30
0.0
 10
7.592221
 20
43.453249
 30
0.0
 10
7.561986
 20
43.395928
 30
0.0
 10
7.539805
 20
43.334748
 30
0.0
 10
7.526182
 20
43.270525
 30
0.0
 10
7.521614
 20
43.204074
 30
0.0
 10
7.521614
 20
30.164828
 30
0.0
 10
7.526381
 20
30.097260
 30
0.0
 10
7.540804
 20
30.031443
 30
0.0
 10
7.564486
 20
29.968330
 30
0.0
 10
7.597030
 20
29.908872
 30
0.0
 10
9.589063
 20
26.819126
 30
0.0
 10
7.775285
 20
25.866150
 30
0.0
 10
7.719725
 20
25.832112
 30
0.0
 10
7.670039
 20
25.791365
 30
0.0
 10
7.626699
 20
25.744672
 30
0.0
 10
7.590173
 20
25.692796
 30
0.0
 10
7.560932
 20
25.636498
 30
0.0
 10
7.539446
 20
25.576541
 30
0.0
 10
7.526185
 20
25.513689
 30
0.0
 10
7.521618
 20
25.448701
 30
0.0
 10
7.521618
 20
19.955565
 30
0.0
 10
7.526536
 20
19.889523
 30
0.0
 10
7.540397
 20
19.825739
 30
0.0
 10
7.562711
 20
19.765008
 30
0.0
 10
7.592977
 20
19.708128
 30
0.0
 10
7.630700
 20
19.655898
 30
0.0
 10
7.675388
 20
19.609112
 30
0.0
 10
7.726541
 20
19.568570
 30
0.0
 10
7.783665
 20
19.535066
 30
0.0
 10
8.105894
 20
19.373571
 30
0.0
 10
2.114560
 20
14.781613
 30
0.0
 10
2.073557
 20
14.738877
 30
0.0
 10
2.046976
 20
14.687238
 30
0.0
 10
2.036095
 20
14.630224
 30
0.0
 10
2.042191
 20
14.571361
 30
0.0
 10
2.750639
 20
11.672059
 30
0.0
 10
2.765690
 20
11.631906
 30
0.0
 10
2.788561
 20
11.596218
 30
0.0
 10
2.818371
 20
11.566069
 30
0.0
 10
2.854238
 20
11.542590
 30
0.0
 10
8.338994
 20
8.715654
 30
0.0
 10
11.422646
 20
1.658601
 30
0.0
 10
11.453789
 20
1.608884
 30
0.0
 10
11.496925
 20
1.570778
 30
0.0
 10
11.549007
 20
1.546285
 30
0.0
 10
11.606993
 20
1.537470
 30
0.0
 10
40.550507
 20
1.537470
 30
0.0
 10
40.609355
 20
1.545661
 30
0.0
 10
40.662336
 20
1.569959
 30
0.0
 10
40.706253
 20
1.608299
 30
0.0
 10
40.737884
 20
1.658589
 30
0.0
 10
43.821536
 20
8.715642
 30
0.0
 10
49.228591
 20
11.582950
 30
0.0
 10
49.265214
 20
11.607638
 30
0.0
 10
49.295324
 20
11.639309
 30
0.0
 10
49.317946
 20
11.676712
 30
0.0
 10
49.332182
 20
11.718543
 30
0.0
 10
49.959880
 20
14.577472
 30
0.0
 10
49.964053
 20
14.635095
 30
0.0
 10
49.952001
 20
14.690467
 30
0.0
 10
49.925051
 20
14.740383
 30
0.0
 10
49.884468
 20
14.781628
 30
0.0
 10
42.959205
 20
20.089652
 30
0.0
 10
44.398191
 20
22.246989
 30
0.0
 10
44.432669
 20
22.307463
 30
0.0
 10
44.457631
 20
22.372025
 30
0.0
 10
44.472881
 20
22.439581
 30
0.0
 10
44.478186
 20
22.509039
 30
0.0
 10
44.478186
 20
30.498481
 30
0.0
 10
44.473661
 20
30.563469
 30
0.0
 10
44.460478
 20
30.626322
 30
0.0
 10
44.439105
 20
30.686278
 30
0.0
 10
44.410009
 20
30.742575
 30
0.0
 10
44.373619
 20
30.794451
 30
0.0
 10
44.330400
 20
30.841144
 30
0.0
 10
44.280801
 20
30.881892
 30
0.0
 10
44.225276
 20
30.915933
 30
0.0
 10
42.998824
 20
31.564201
 30
0.0
 10
44.233654
 20
32.249034
 30
0.0
 10
44.287326
 20
32.283387
 30
0.0
 10
44.335237
 20
32.324100
 30
0.0
 10
44.376974
 20
32.370445
 30
0.0
 10
44.412115
 20
32.421694
 30
0.0
 10
44.440236
 20
32.477117
 30
0.0
 10
44.460907
 20
32.535988
 30
0.0
 10
44.473700
 20
32.597576
 30
0.0
 10
44.478186
 20
32.661154
 30
0.0
 10
44.478186
 20
43.204074
 30
0.0
 10
44.473622
 20
43.270526
 30
0.0
 10
44.460010
 20
43.334750
 30
0.0
 10
44.437818
 20
43.395930
 30
0.0
 10
44.407591
 20
43.453251
 30
0.0
 10
44.369797
 20
43.505896
 30
0.0
 10
44.324959
 20
43.553050
 30
0.0
 10
44.273573
 20
43.593896
 30
0.0
 10
44.216138
 20
43.627618
 30
0.0
 10
28.735414
 20
51.340556
 30
0.0
 10
28.685099
 20
51.361879
 30
0.0
 10
28.633185
 20
51.377110
 30
0.0
 10
28.580205
 20
51.386248
 30
0.0
 10
28.526691
 20
51.389290
 30
0.0
 10
28.473177
 20
51.386248
 30
0.0
 10
28.420195
 20
51.377110
 30
0.0
 10
28.368280
 20
51.361879
 30
0.0
 10
28.317962
 20
51.340556
 30
0.0
 10
26.025792
 20
50.220752
 30
0.0
 10
23.679535
 20
51.343603
 30
0.0
 10
23.591187
 20
51.375929
 30
0.0
 10
23.498233
 20
51.390071
 30
0.0
  0
ENDSEC
  0
SECTION
  2
OBJECTS
  0
DICTIONARY
  5
C
330
0
100
AcDbDictionary
  3
ACAD_GROUP
350
D
  3
ACAD_MLINESTYLE
350
17
  0
DICTIONARY
  5
D
330
C
100
AcDbDictionary
  0
DICTIONARY
  5
1A
330
C
100
AcDbDictionary
  0
DICTIONARY
  5
17
330
C
100
AcDbDictionary
  3
STANDARD
350
18
  0
DICTIONARY
  5
19
330
C
100
AcDbDictionary
  0
ENDSEC
  0
EOF
